<?xml version="1.0" encoding="UTF-8"?>
<svg xmlns="http://www.w3.org/2000/svg" viewBox="0 0 32 32" width="32px" height="32px">
<g id="surface4648317">
<path style=" stroke:none;fill-rule:nonzero;fill:rgb(100%,100%,100%);fill-opacity:1;" d="M 19.289062 1.28125 C 17.195312 1.28125 15.390625 1.917969 14.121094 3.179688 C 12.851562 4.441406 12.160156 6.289062 12.160156 8.554688 L 12.160156 11.519531 L 8.320312 11.519531 C 7.964844 11.519531 7.679688 11.804688 7.679688 12.160156 L 7.679688 17.28125 C 7.679688 17.632812 7.964844 17.921875 8.320312 17.921875 L 12.160156 17.921875 L 12.160156 30.078125 C 12.160156 30.433594 12.445312 30.71875 12.800781 30.71875 L 17.921875 30.71875 C 18.273438 30.71875 18.558594 30.433594 18.558594 30.078125 L 18.558594 17.921875 L 23.039062 17.921875 C 23.363281 17.921875 23.632812 17.679688 23.675781 17.359375 L 24.316406 12.238281 C 24.339844 12.058594 24.28125 11.875 24.160156 11.738281 C 24.039062 11.597656 23.863281 11.519531 23.679688 11.519531 L 18.558594 11.519531 L 18.558594 8.960938 C 18.558594 8.246094 19.125 7.679688 19.839844 7.679688 L 23.679688 7.679688 C 24.035156 7.679688 24.320312 7.394531 24.320312 7.039062 L 24.320312 2.140625 C 24.320312 1.820312 24.082031 1.550781 23.765625 1.507812 C 23.199219 1.433594 21.15625 1.28125 19.289062 1.28125 Z M 19.289062 2.558594 C 20.851562 2.558594 22.359375 2.683594 23.039062 2.75 L 23.039062 6.398438 L 19.839844 6.398438 C 18.433594 6.398438 17.28125 7.554688 17.28125 8.960938 L 17.28125 12.160156 C 17.28125 12.511719 17.566406 12.800781 17.921875 12.800781 L 22.953125 12.800781 L 22.476562 16.640625 L 17.921875 16.640625 C 17.566406 16.640625 17.28125 16.925781 17.28125 17.28125 L 17.28125 29.441406 L 13.441406 29.441406 L 13.441406 17.28125 C 13.441406 16.925781 13.152344 16.640625 12.800781 16.640625 L 8.960938 16.640625 L 8.960938 12.800781 L 12.800781 12.800781 C 13.152344 12.800781 13.441406 12.511719 13.441406 12.160156 L 13.441406 8.554688 C 13.441406 6.542969 14.027344 5.074219 15.023438 4.085938 C 16.015625 3.097656 17.453125 2.558594 19.289062 2.558594 Z M 19.289062 2.558594 "/>
</g>
</svg>
