<svg width="179" height="54" viewBox="0 0 179 54" fill="none" xmlns="http://www.w3.org/2000/svg">
<g filter="url(#filter0_d)">
<path d="M22.8129 20.912V26.672H20.5809V23H6.75691L6.73291 26.672H4.50091L4.52491 20.912H5.34091C6.39691 20.848 7.14091 20.016 7.57291 18.416C8.00491 16.8 8.26891 14.528 8.36491 11.6L8.53291 6.2H20.3409V20.912H22.8129ZM10.4769 11.816C10.3969 14.184 10.2049 16.144 9.90091 17.696C9.61291 19.248 9.14091 20.32 8.48491 20.912H17.9649V8.288H10.5969L10.4769 11.816ZM35.094 23.192C33.398 23.192 31.87 22.824 30.51 22.088C29.15 21.336 28.078 20.304 27.294 18.992C26.526 17.68 26.142 16.216 26.142 14.6C26.142 12.984 26.526 11.52 27.294 10.208C28.078 8.896 29.15 7.872 30.51 7.136C31.87 6.384 33.398 6.008 35.094 6.008C36.774 6.008 38.294 6.384 39.654 7.136C41.014 7.872 42.078 8.896 42.846 10.208C43.614 11.504 43.998 12.968 43.998 14.6C43.998 16.232 43.614 17.704 42.846 19.016C42.078 20.312 41.014 21.336 39.654 22.088C38.294 22.824 36.774 23.192 35.094 23.192ZM35.094 21.056C36.326 21.056 37.43 20.776 38.406 20.216C39.398 19.656 40.174 18.888 40.734 17.912C41.31 16.92 41.598 15.816 41.598 14.6C41.598 13.384 41.31 12.288 40.734 11.312C40.174 10.32 39.398 9.544 38.406 8.984C37.43 8.424 36.326 8.144 35.094 8.144C33.862 8.144 32.742 8.424 31.734 8.984C30.742 9.544 29.958 10.32 29.382 11.312C28.822 12.288 28.542 13.384 28.542 14.6C28.542 15.816 28.822 16.92 29.382 17.912C29.958 18.888 30.742 19.656 31.734 20.216C32.742 20.776 33.862 21.056 35.094 21.056ZM64.8937 23L64.8697 10.76L58.7977 20.96H57.6937L51.6217 10.832V23H49.3177V6.2H51.2857L58.2937 18.008L65.2057 6.2H67.1737L67.1977 23H64.8937Z" fill="black"/>
<path d="M10.1861 30.423H7.78613V36.553H6.80613V30.423H4.41613V29.553H10.1861V30.423ZM15.4539 36.633C14.7472 36.633 14.1105 36.4797 13.5439 36.173C12.9772 35.8597 12.5305 35.4297 12.2039 34.883C11.8839 34.3363 11.7239 33.7263 11.7239 33.053C11.7239 32.3797 11.8839 31.7697 12.2039 31.223C12.5305 30.6763 12.9772 30.2497 13.5439 29.943C14.1105 29.6297 14.7472 29.473 15.4539 29.473C16.1539 29.473 16.7872 29.6297 17.3539 29.943C17.9205 30.2497 18.3639 30.6763 18.6839 31.223C19.0039 31.763 19.1639 32.373 19.1639 33.053C19.1639 33.733 19.0039 34.3463 18.6839 34.893C18.3639 35.433 17.9205 35.8597 17.3539 36.173C16.7872 36.4797 16.1539 36.633 15.4539 36.633ZM15.4539 35.743C15.9672 35.743 16.4272 35.6263 16.8339 35.393C17.2472 35.1597 17.5705 34.8397 17.8039 34.433C18.0439 34.0197 18.1639 33.5597 18.1639 33.053C18.1639 32.5463 18.0439 32.0897 17.8039 31.683C17.5705 31.2697 17.2472 30.9463 16.8339 30.713C16.4272 30.4797 15.9672 30.363 15.4539 30.363C14.9405 30.363 14.4739 30.4797 14.0539 30.713C13.6405 30.9463 13.3139 31.2697 13.0739 31.683C12.8405 32.0897 12.7239 32.5463 12.7239 33.053C12.7239 33.5597 12.8405 34.0197 13.0739 34.433C13.3139 34.8397 13.6405 35.1597 14.0539 35.393C14.4739 35.6263 14.9405 35.743 15.4539 35.743ZM24.5104 29.553C25.4171 29.553 26.1304 29.7697 26.6504 30.203C27.1704 30.6363 27.4304 31.233 27.4304 31.993C27.4304 32.753 27.1704 33.3497 26.6504 33.783C26.1304 34.2163 25.4171 34.433 24.5104 34.433H22.7804V36.553H21.7804V29.553H24.5104ZM24.4804 33.563C25.1138 33.563 25.5971 33.4297 25.9304 33.163C26.2638 32.8897 26.4304 32.4997 26.4304 31.993C26.4304 31.4863 26.2638 31.0997 25.9304 30.833C25.5971 30.5597 25.1138 30.423 24.4804 30.423H22.7804V33.563H24.4804ZM34.4014 30.423H30.8014L30.8114 36.553H29.8214V29.553H34.4114L34.4014 30.423ZM38.8738 36.633C38.1671 36.633 37.5305 36.4797 36.9638 36.173C36.3971 35.8597 35.9505 35.4297 35.6238 34.883C35.3038 34.3363 35.1438 33.7263 35.1438 33.053C35.1438 32.3797 35.3038 31.7697 35.6238 31.223C35.9505 30.6763 36.3971 30.2497 36.9638 29.943C37.5305 29.6297 38.1671 29.473 38.8738 29.473C39.5738 29.473 40.2071 29.6297 40.7738 29.943C41.3405 30.2497 41.7838 30.6763 42.1038 31.223C42.4238 31.763 42.5838 32.373 42.5838 33.053C42.5838 33.733 42.4238 34.3463 42.1038 34.893C41.7838 35.433 41.3405 35.8597 40.7738 36.173C40.2071 36.4797 39.5738 36.633 38.8738 36.633ZM38.8738 35.743C39.3871 35.743 39.8471 35.6263 40.2538 35.393C40.6671 35.1597 40.9905 34.8397 41.2238 34.433C41.4638 34.0197 41.5838 33.5597 41.5838 33.053C41.5838 32.5463 41.4638 32.0897 41.2238 31.683C40.9905 31.2697 40.6671 30.9463 40.2538 30.713C39.8471 30.4797 39.3871 30.363 38.8738 30.363C38.3605 30.363 37.8938 30.4797 37.4738 30.713C37.0605 30.9463 36.7338 31.2697 36.4938 31.683C36.2605 32.0897 36.1438 32.5463 36.1438 33.053C36.1438 33.5597 36.2605 34.0197 36.4938 34.433C36.7338 34.8397 37.0605 35.1597 37.4738 35.393C37.8938 35.6263 38.3605 35.743 38.8738 35.743ZM49.5604 32.923C50.0337 33.0363 50.3904 33.2397 50.6304 33.533C50.877 33.8197 51.0004 34.1897 51.0004 34.643C51.0004 35.2497 50.777 35.7197 50.3304 36.053C49.8904 36.3863 49.247 36.553 48.4004 36.553H45.2004V29.553H48.2104C48.977 29.553 49.5737 29.7097 50.0004 30.023C50.4337 30.3297 50.6504 30.773 50.6504 31.353C50.6504 31.733 50.5537 32.0563 50.3604 32.323C50.1737 32.5897 49.907 32.7897 49.5604 32.923ZM46.1904 32.633H48.1404C48.627 32.633 48.997 32.5363 49.2504 32.343C49.5104 32.1497 49.6404 31.8663 49.6404 31.493C49.6404 31.1197 49.5104 30.8363 49.2504 30.643C48.9904 30.443 48.6204 30.343 48.1404 30.343H46.1904V32.633ZM48.3804 35.763C49.4537 35.763 49.9904 35.363 49.9904 34.563C49.9904 34.163 49.8537 33.8697 49.5804 33.683C49.3137 33.4897 48.9137 33.393 48.3804 33.393H46.1904V35.763H48.3804ZM59.3911 29.553V36.553H58.4111V30.423H55.3111L55.2411 32.473C55.2077 33.4397 55.1277 34.223 55.0011 34.823C54.8811 35.423 54.6877 35.8763 54.4211 36.183C54.1544 36.483 53.7944 36.633 53.3411 36.633C53.1344 36.633 52.9244 36.6063 52.7111 36.553L52.7811 35.663C52.8877 35.6897 52.9944 35.703 53.1011 35.703C53.3877 35.703 53.6177 35.5897 53.7911 35.363C53.9644 35.1297 54.0944 34.783 54.1811 34.323C54.2677 33.863 54.3244 33.2563 54.3511 32.503L54.4611 29.553H59.3911ZM62.5714 29.553H63.5614V34.953L67.7014 29.553H68.6214V36.553H67.6414V31.163L63.4914 36.553H62.5714V29.553Z" fill="black"/>
<path d="M79.3084 24.5831C81.4844 24.5831 83.1964 25.1031 84.4444 26.1431C85.6924 27.1831 86.3164 28.6151 86.3164 30.4391C86.3164 32.2631 85.6924 33.6951 84.4444 34.7351C83.1964 35.7751 81.4844 36.2951 79.3084 36.2951H75.1564V41.3831H72.7564V24.5831H79.3084ZM79.2364 34.2071C80.7564 34.2071 81.9164 33.8871 82.7164 33.2471C83.5164 32.5911 83.9164 31.6551 83.9164 30.4391C83.9164 29.2231 83.5164 28.2951 82.7164 27.6551C81.9164 26.9991 80.7564 26.6711 79.2364 26.6711H75.1564V34.2071H79.2364ZM100.931 37.1831H92.0031L90.1551 41.3831H87.6831L95.2911 24.5831H97.6671L105.299 41.3831H102.779L100.931 37.1831ZM100.091 35.2631L96.4671 27.0311L92.8431 35.2631H100.091ZM125.477 39.2951V45.0551H123.245V41.3831H109.421L109.397 45.0551H107.165L107.189 39.2951H108.005C109.061 39.2311 109.805 38.3991 110.237 36.7991C110.669 35.1831 110.933 32.9111 111.029 29.9831L111.197 24.5831H123.005V39.2951H125.477ZM113.141 30.1991C113.061 32.5671 112.869 34.5271 112.565 36.0791C112.277 37.6311 111.805 38.7031 111.149 39.2951H120.629V26.6711H113.261L113.141 30.1991ZM143.71 24.5831L136.246 38.4311C135.654 39.5351 134.958 40.3591 134.158 40.9031C133.358 41.4471 132.486 41.7191 131.542 41.7191C130.806 41.7191 130.054 41.5511 129.286 41.2151L129.91 39.2951C130.502 39.5031 131.03 39.6071 131.494 39.6071C132.55 39.6071 133.422 39.0471 134.11 37.9271L134.494 37.3271L127.726 24.5831H130.294L135.742 35.2391L141.334 24.5831H143.71ZM158.392 26.6711H149.752L149.776 41.3831H147.4V24.5831H158.416L158.392 26.6711ZM170.208 37.1831H161.28L159.432 41.3831H156.96L164.568 24.5831H166.944L174.576 41.3831H172.056L170.208 37.1831ZM169.368 35.2631L165.744 27.0311L162.12 35.2631H169.368Z" fill="#FF0000"/>
</g>
<defs>
<filter id="filter0_d" x="0.416016" y="6.008" width="178.16" height="47.0471" filterUnits="userSpaceOnUse" color-interpolation-filters="sRGB">
<feFlood flood-opacity="0" result="BackgroundImageFix"/>
<feColorMatrix in="SourceAlpha" type="matrix" values="0 0 0 0 0 0 0 0 0 0 0 0 0 0 0 0 0 0 127 0"/>
<feOffset dy="4"/>
<feGaussianBlur stdDeviation="2"/>
<feColorMatrix type="matrix" values="0 0 0 0 0 0 0 0 0 0 0 0 0 0 0 0 0 0 0.25 0"/>
<feBlend mode="normal" in2="BackgroundImageFix" result="effect1_dropShadow"/>
<feBlend mode="normal" in="SourceGraphic" in2="effect1_dropShadow" result="shape"/>
</filter>
</defs>
</svg>
