<?xml version="1.0" encoding="utf-8"?>
<!-- Generator: Adobe Illustrator 24.3.0, SVG Export Plug-In . SVG Version: 6.00 Build 0)  -->
<svg version="1.1" xmlns="http://www.w3.org/2000/svg" xmlns:xlink="http://www.w3.org/1999/xlink" x="0px" y="0px"
	 viewBox="0 0 48 48" style="enable-background:new 0 0 48 48;" xml:space="preserve">
<style type="text/css">
	.st0{fill:#C5C5F9;}
	.st1{fill:#9D9DD6;}
	.st2{fill:#0909AD;}
	.st3{fill:#0909C9;}
	.st4{fill:#02021C;}
	.st5{fill:#00000C;}
	.st6{fill:#02022B;}
	.st7{fill:#0C0000;}
</style>
<g id="Слой_4">
	<path class="st0" d="M22.5,13.3L15,17.8l-0.5,0.5l-1.9-6l0.2-4.5l2.8-2.6l1.9-2.7l4-1.4l5.7,0.2l4.3,1.5l1.4,2.6l1.2,2l0.7,3
		l-0.4,3l-0.9,3l-0.9,1.7c0,0-0.4,0.3-0.5,0c-0.2-0.3-0.8-0.7-0.8-0.7S23.8,40,23.4,40c-0.4,0-7.3-23.4-7.3-23.4L22.5,13.3z"/>
	<polyline class="st1" points="16.2,17.1 22,13.5 22.8,14.1 25.1,14.2 26.1,13.9 31.2,17.4 26.7,30.6 21.1,32.5 16.2,17.1 
		16.2,17.1 	"/>
	<path class="st1" d="M30.6,7.5l-2.2,3l-1.8,2l-0.8,0.6l-1,0.2l-1.4,0L22,12.8l-3.3-3L17.1,7l0-1.9l0.8-1.4l1.3-0.9l2.2-0.6l2-0.2
		c0,0,4.5-0.1,6.2,0.8s1.6,2,1.6,2v1.3v0.1"/>
</g>
<g id="Слой_3">
	<path class="st2" d="M20.1,14.9c0,0,1.5,3.2,2.3,3.2s3.4,0,3.4,0s0.9,0.2,1.9-3c0.2-0.4-1-0.9-1-0.9l-6.1-0.1L20.1,14.9z"/>
	<path class="st3" d="M22.5,17.9c0,0-1.2,7.9-1.3,14s2.3,9.5,2.3,9.5l3.3-7.9c0,0-0.2-14.7-0.6-15.6C25.9,17,22.5,17.9,22.5,17.9z"
		/>
	<path class="st2" d="M17.1,6.4c0,0,1.6-0.5,6.9-0.5s7,0.8,7,0.8l0.3-0.4l-0.1-0.2c0,0-1.5-1-7.2-1s-7,0.6-7,0.6L17.1,6.4z"/>
	<polygon class="st2" points="22.9,14.2 22,13.5 20.8,14.3 	"/>
	<path class="st2" d="M25.1,14.2c0.1,0,0.9-0.3,0.9-0.3l0.6,0.5L25.1,14.2z"/>
	<polygon class="st0" points="26.4,14.1 28.7,15.7 28.4,13.9 	"/>
	<polygon class="st0" points="19.8,14.9 22.1,13.5 20.8,13.4 	"/>
	<polygon class="st1" points="22.5,13.3 22,13.5 22.8,14.2 25.1,14.3 26.1,13.9 25.2,13.3 	"/>
	<polyline class="st1" points="17.3,4.5 18.3,3.4 20.1,2.5 21.4,2.2 23.8,2.1 	"/>
</g>
<g id="Слой_5">
	<path class="st4" d="M33.6,7.2c0,0,0.8,1.6,1,2.5c0.2,0.8,0.6,9.2,0.6,9.2L25.3,37l-1.9,3.1L22.6,40L12.3,15.6L13,9.2
		c0,0,0.3-1.8,0.5-2.2c0.2-0.4-6.4,2.6-6.4,2.6l-2.4,0.9l-0.4,1.7l0.3,26.8l-0.1,3.4l1.6,2.3l2.4,1l15.6,0.5l1.4-0.6l10.1,0.1
		l4.2-0.5l2.7-2.3l0-2l0.1-27.3l-0.1-2.4l-1.3-1.4L33.6,7.2z"/>
	<path class="st5" d="M40.5,44.4H28.9c-0.2,0-0.4-0.2-0.4-0.4v-3c0-0.2,0.2-0.4,0.4-0.4h11.6c0.2,0,0.4,0.2,0.4,0.4v3
		C40.9,44.2,40.7,44.4,40.5,44.4z"/>
	<path class="st6" d="M13,9.3l-3.5,5.1c0,0,1.5,2,2.5,2.5c-0.2,0.1-2.9,1.6-2.9,1.6S20.3,40,23.3,40.3c1,1.8-7.1-23.2-7.1-23.2
		l-1.5,0.9C14.7,18.1,13.3,17.6,13,9.3z"/>
	<path class="st6" d="M34.5,9.3l3.7,5.2c0,0-2.5,2.5-2.7,2.4c0.4,0.3,2.8,1.6,2.8,1.6s-8,15.4-14.9,21.9c0.7-2.1,7.8-23.2,7.8-23.2
		l1,0.9c0,0,0.4,0.5,1.7-3.3C33.9,14.8,34.9,12.2,34.5,9.3z"/>
	<polygon class="st0" points="29,40.7 32.1,36.5 40.3,40.6 	"/>
</g>
<g id="Слой_2">
	<g>
		<path class="st7" d="M24,2.1c-1,0-2.1,0.1-3.1,0.3c-1,0.2-2,0.6-2.8,1.3c-0.8,0.7-1.1,1.7-0.9,2.8c0.1,1,0.6,2,1.2,2.8
			c0.6,0.8,1.4,1.6,2.1,2.2c0.4,0.3,0.8,0.7,1.2,1l0.6,0.4c0.2,0.1,0.4,0.2,0.7,0.2c0.5,0.1,1,0.1,1.5,0.1c0.5,0,1.1-0.1,1.4-0.3
			c0.8-0.6,1.5-1.4,2.1-2.2C28.8,9.8,29.4,9,30,8.1c0.3-0.4,0.6-0.9,0.8-1.3c0.1-0.2,0.3-0.5,0.3-0.6c0-0.2,0-0.5,0-0.7
			c-0.1-1-0.5-1.9-1.2-2.6c-0.7-0.7-1.7-1.1-2.6-1.4c-2-0.5-4.1-0.4-6.1-0.1c-1,0.2-2,0.5-2.9,0.9c-0.9,0.5-1.7,1.2-1.9,2l0,0l0,0.1
			l0,0c-0.4,0.6-0.8,1.2-1.2,1.7l-0.3,0.4c-0.1,0.1-0.1,0.1-0.2,0.2c0,0-0.1,0.1-0.1,0.1c0,0-0.1,0.1-0.2,0.1c0,0-0.1,0-0.1,0l0,0
			l-0.9,0.4L9.4,9.1L7.5,9.9c-0.7,0.3-1.4,0.4-2,0.7c-0.1,0-0.3,0.1-0.4,0.2c0,0-0.1,0.1-0.1,0.3C5,11.3,5,11.6,4.9,12
			c0,0.7,0,1.4,0,2l0.2,16.7l0.1,8.4l0,0.5c0,0.2,0,0.4,0,0.6c-0.1,0.4-0.1,0.6-0.2,1C5,41.8,5.1,42.4,5.4,43
			c0.6,1.1,1.8,1.8,3.1,2.2c0.3,0.1,0.6,0.2,0.9,0.2l1,0l2.1,0.1l4.2,0.1l8.3,0.2l-0.3,0.1l0.5-0.6l0.1-0.1l0.2,0l10,0.1l2.5,0
			c0.3,0,0.8-0.2,1.1-0.3c0.4-0.1,0.8-0.3,1.1-0.4c0.7-0.3,1.4-0.8,1.8-1.4c0.4-0.6,0.6-1.3,0.4-2.1l0,0l0-0.1l0.1-28.7l0-0.1l0-0.1
			c0.1-0.4,0-1-0.4-1.4c-0.4-0.4-1-0.6-1.6-0.9l-3.7-1.4l-1.9-0.7c-0.3-0.1-0.6-0.2-1-0.4c-0.4-0.2-0.6-0.6-0.7-0.9
			c-0.3-0.6-0.7-1.2-1-1.8c-0.1-0.3-0.2-0.7-0.3-1c-0.1-0.1-0.1-0.3-0.2-0.4c0-0.1-0.1-0.1-0.1-0.1l0,0c0,0,0,0,0.1,0
			c-0.2,0-0.4-0.1-0.4-0.3c0-0.2,0.1-0.4,0.3-0.4c0.2,0,0.3,0,0.4,0.1c0.1,0,0.1,0.1,0.2,0.1c0.1,0.1,0.2,0.2,0.2,0.3
			c0.1,0.2,0.2,0.3,0.3,0.5c0.1,0.4,0.2,0.6,0.3,0.9c0.2,0.6,0.6,1.2,0.9,1.7c0.2,0.3,0.3,0.5,0.5,0.6c0.2,0.1,0.5,0.2,0.8,0.3
			L37,7.8l3.7,1.4c0.6,0.2,1.3,0.5,1.9,1c0.6,0.5,0.9,1.4,0.6,2.2l0-0.1L43.1,41l0-0.1c0.3,0.9,0.1,2-0.5,2.7
			c-0.6,0.8-1.3,1.2-2.1,1.6c-0.4,0.2-0.8,0.3-1.2,0.5c-0.4,0.1-0.8,0.3-1.3,0.3l-2.5,0l-10-0.1l0.3-0.1l-0.5,0.6l-0.1,0.1l-0.2,0
			l-8.3-0.2l-4.2-0.1l-2.1-0.1l-1,0c-0.4,0-0.8-0.1-1.1-0.2c-1.4-0.4-2.8-1.2-3.5-2.6c-0.3-0.7-0.5-1.5-0.4-2.2
			c0-0.4,0.1-0.8,0.2-1.1c0.1-0.2,0-0.6,0-1l-0.1-8.3L4.2,14c0-0.7,0-1.4,0-2.1c0-0.4,0.1-0.7,0.1-1.1c0.1-0.2,0.1-0.4,0.3-0.6
			C4.9,10,5.1,9.9,5.2,9.9c0.7-0.3,1.4-0.5,2-0.7l2-0.8l3.9-1.6l1-0.4l0,0c0,0-0.1,0-0.1,0c-0.1,0-0.1,0-0.1,0c0,0,0,0,0.1-0.1
			c0,0,0.1-0.1,0.2-0.2l0.3-0.4c0.4-0.5,0.8-1.1,1.2-1.7l-0.1,0.1l0,0C16.1,3,17,2.2,18,1.7c1-0.5,2-0.8,3.1-1
			c2.1-0.3,4.3-0.3,6.4,0.2c1,0.3,2.1,0.7,2.9,1.5c0.8,0.8,1.3,1.9,1.3,3c0,0.3,0,0.5,0,0.9c-0.1,0.3-0.2,0.5-0.4,0.8
			C31,7.5,30.7,8,30.4,8.4c-0.6,0.9-1.2,1.7-1.9,2.5c-0.7,0.8-1.4,1.6-2.3,2.3c-0.5,0.4-1.1,0.3-1.6,0.4c-0.5,0-1.1,0-1.6-0.1
			c-0.3,0-0.6-0.1-0.8-0.3l-0.6-0.5c-0.4-0.3-0.8-0.6-1.2-1c-0.8-0.7-1.5-1.5-2.2-2.3c-0.6-0.9-1.1-1.8-1.3-2.9
			c-0.2-1.1,0.2-2.2,1-3c0.8-0.7,1.9-1.1,2.9-1.3C21.9,2,22.9,1.9,24,2C24,2,24.1,2,24,2.1C24.1,2.1,24,2.1,24,2.1z"/>
	</g>
</g>
</svg>
