<?xml version="1.0" encoding="utf-8"?>
<!-- Generator: Adobe Illustrator 24.3.0, SVG Export Plug-In . SVG Version: 6.00 Build 0)  -->
<svg version="1.1" xmlns="http://www.w3.org/2000/svg" xmlns:xlink="http://www.w3.org/1999/xlink" x="0px" y="0px"
	 viewBox="0 0 48 48" style="enable-background:new 0 0 48 48;" xml:space="preserve">
<style type="text/css">
	.st0{fill:#8CEAE7;}
	.st1{fill:#64D8D2;}
	.st2{fill:#37DBD2;}
	.st3{fill:#00CCCC;}
</style>
<g id="Слой_3">
	<path class="st0" d="M26.9,5.9c0,0-2.5,2.6-2.5,0.3c-0.6,0.6-2,0.4-2,0.4l-1.3-0.4c0,0-0.9,1.7-3-0.4c-0.7,1.2-1.1,3.1-1.1,3.1
		l0.7,2.3l0.2,0.3c0,0,0.1,0.1,0.3,0.1c0.9,0.4,4,1.8,7.8,1.4c0.1,0,0.2,0,0.3,0C26.5,12.3,26.9,5.9,26.9,5.9z"/>
	<path class="st0" d="M17.4,14.6c0,0,3.6,0.4,8.5-0.6c0.1,0.8,0.9,2.4,0.9,2.4l1.4,4.4l0.4,3l2,6.1l2.3,5.9l0.8,1.7
		c0,0-1.3-0.4-1.4-0.4c0,0-1.6-0.2-1.6-0.2l-1.5-1l-2.6-3.8l-5.8-1.8L19.7,31l-3.1,0.3l-1.8,1.5l-0.3-4.8L15,22l1.6-5.8L17.4,14.6"
		/>
	<polyline class="st0" points="15.5,33.5 15.6,35.5 16.6,34 15.5,33.5 	"/>
	<polygon class="st1" points="33.8,43.1 33.3,42.6 33.5,41 34,40.8 	"/>
	<path class="st1" d="M15.1,32.6c0,0,0.1-0.4,0.7-0.7c0.6-0.3,3.3-0.7,3.3-0.7L20,31l0.8-0.8l2.4,1l3.3,0.7l2.4,3.3l1.7,1.5l2.8,0.3
		l-0.1,1.4l0.9,1.2L33,41.9l1,2.1l-2.2,1.4l-4.4-0.3l-3.5,0.1l-2.4-1.6l-2.4-4.9l-3.7-2.4l1.3-2.4L15.1,32.6z"/>
	<path class="st2" d="M25.8,14c0,0-5.1,1.2-8.3,0.7c0.1-0.3,0.5-3.2,0.5-3.2s3.2,1.9,8,1.5C25.9,13.7,25.8,14,25.8,14z"/>
	<polygon class="st0" points="18.1,5.8 19.2,7.3 21.8,7.3 24.3,7.6 26.4,7.2 26.9,6 26.2,2.1 25.5,1.8 24.4,4.7 21.7,4.7 20.5,2.2 
		18.3,4.9 	"/>
</g>
<g id="Слой_4">
	<g>
		<path class="st3" d="M15.3,36.1l0.1-2.9c0-0.1,0.1-0.1,0.1-0.1c0.1,0,0.1,0.1,0.1,0.1l0.1,2.9c0,0.1-0.1,0.2-0.2,0.2
			S15.3,36.3,15.3,36.1C15.3,36.1,15.3,36.1,15.3,36.1z"/>
	</g>
	<g>
		<path class="st3" d="M22.3,43.9l0.1-8.4c0-0.1,0.1-0.1,0.1-0.1c0.1,0,0.1,0.1,0.1,0.1l0.1,8.4c0,0.1-0.1,0.2-0.2,0.2
			C22.4,44.1,22.3,44,22.3,43.9C22.3,43.9,22.3,43.9,22.3,43.9z"/>
	</g>
	<g>
		<path class="st3" d="M19.1,39l0.1-3.6c0-0.1,0.1-0.1,0.1-0.1c0.1,0,0.1,0.1,0.1,0.1l0.1,3.6c0,0.1-0.1,0.2-0.2,0.2
			C19.2,39.2,19.1,39.1,19.1,39C19.1,39,19.1,39,19.1,39z"/>
	</g>
	<g>
		<path class="st3" d="M27.2,45.4l0.1-3.3c0-0.1,0.1-0.1,0.1-0.1c0.1,0,0.1,0.1,0.1,0.1l0.1,3.3c0,0.1-0.1,0.2-0.2,0.2
			C27.3,45.6,27.2,45.5,27.2,45.4C27.2,45.4,27.2,45.4,27.2,45.4z"/>
	</g>
	<g>
		<path class="st3" d="M28.6,44.9l0.1-5.5c0-0.1,0.1-0.1,0.1-0.1c0.1,0,0.1,0.1,0.1,0.1l0.1,5.5c0,0.1-0.1,0.2-0.2,0.2
			C28.7,45.2,28.6,45.1,28.6,44.9C28.6,44.9,28.6,44.9,28.6,44.9z"/>
	</g>
	<g>
		<path class="st3" d="M33.7,43.8l0.1-4.2c0-0.1,0.1-0.1,0.1-0.1c0.1,0,0.1,0.1,0.1,0.1l0.1,4.2c0,0.1-0.1,0.2-0.2,0.2
			C33.8,44,33.7,43.9,33.7,43.8C33.7,43.8,33.7,43.8,33.7,43.8z"/>
	</g>
	<g>
		<path class="st3" d="M30.3,36.8l0.1-2.1c0-0.1,0.1-0.1,0.1-0.1c0.1,0,0.1,0.1,0.1,0.1l0.1,2.1c0,0.1-0.1,0.2-0.2,0.2
			S30.3,37,30.3,36.8C30.3,36.8,30.3,36.8,30.3,36.8z"/>
	</g>
	<g>
		<path class="st3" d="M28.8,35.8l0.1-2.4c0-0.1,0.1-0.1,0.1-0.1c0.1,0,0.1,0.1,0.1,0.1l0.1,2.4c0,0.1-0.1,0.2-0.2,0.2
			C28.9,36.1,28.8,36,28.8,35.8C28.8,35.9,28.8,35.8,28.8,35.8z"/>
	</g>
	<g>
		<path class="st3" d="M25,31.8l0.1-3.9c0,0,0-0.1,0.1-0.1c0,0,0.1,0,0.1,0.1l0.1,3.9c0,0.1-0.1,0.2-0.2,0.2S25,31.9,25,31.8
			C25,31.8,25,31.8,25,31.8z"/>
	</g>
	<g>
		<path class="st3" d="M19.4,31.2l0.2-2.4c0,0,0-0.1,0.1-0.1c0,0,0.1,0,0.1,0.1l0.2,2.4c0,0.1-0.1,0.2-0.2,0.2
			C19.6,31.4,19.5,31.4,19.4,31.2C19.4,31.2,19.4,31.2,19.4,31.2z"/>
	</g>
	<g>
		<path class="st3" d="M21.5,30.9l0.1-4.9c0-0.1,0.1-0.1,0.1-0.1c0.1,0,0.1,0,0.1,0.1l0.1,4.9c0,0.1-0.1,0.2-0.2,0.2
			C21.6,31.1,21.5,31,21.5,30.9C21.5,30.9,21.5,30.9,21.5,30.9z"/>
	</g>
	<g>
		<path class="st3" d="M27.2,33.1l0.1-1.5c0-0.1,0.1-0.1,0.1-0.1c0.1,0,0.1,0.1,0.1,0.1l0.1,1.5c0,0.1-0.1,0.2-0.2,0.2
			C27.3,33.3,27.2,33.2,27.2,33.1C27.2,33.1,27.2,33.1,27.2,33.1z"/>
	</g>
	<g>
		<path class="st3" d="M32.9,41.4l0.1-1.9c0-0.1,0.1-0.1,0.1-0.1c0.1,0,0.1,0.1,0.1,0.1l0.1,1.9c0,0.1-0.1,0.2-0.2,0.2
			S33,41.6,32.9,41.4C32.9,41.4,32.9,41.4,32.9,41.4z"/>
	</g>
</g>
<g id="Слой_5">
	<g>
		<path class="st3" d="M32.6,35.9c-1.6-3.9-3.1-7.8-4.4-11.8c0,0,0-0.1,0-0.1l0,0c-0.1-1.6-0.3-3.1-0.8-4.6c-0.4-1.5-1-3-1.8-4.3
			l0,0l0,0c-0.1-0.2-0.1-0.4-0.2-0.7c0-0.1,0-0.3,0-0.4c0-0.1,0-0.1,0.1-0.2c0-0.1,0.1-0.2,0.1-0.1c0,0,0-0.1,0-0.2
			c0-0.1,0-0.2,0.1-0.3l0.1-0.6c0.1-0.8,0.2-1.5,0.3-2.3l0.6-4.6l0,0.1c-0.1-0.6-0.2-1.3-0.4-1.9c-0.2-0.6-0.4-1.3-0.6-1.7
			c0-0.1-0.1-0.1-0.1-0.1c0,0,0.1,0,0.1,0c0,0-0.1,0-0.1,0.2c-0.1,0.2-0.2,0.5-0.3,0.8c-0.1,0.3-0.2,0.6-0.3,1
			c-0.1,0.3-0.3,0.7-0.7,1c0,0,0,0-0.1,0l0,0c-0.5,0.2-1,0.2-1.4,0.1c-0.2,0-0.4-0.1-0.6-0.1c-0.1,0-0.2,0-0.4,0
			c-0.2-0.1-0.4-0.2-0.4-0.3c-0.3-0.5-0.3-0.9-0.5-1.3c-0.1-0.4-0.2-0.8-0.4-1l0.3,0.1c-0.6,0-1.2,0.7-1.5,1.4
			c-0.4,0.7-0.7,1.5-1,2.3c0,0,0,0,0,0.1c-0.4,0.6-0.7,1.3-0.8,2c-0.1,0.7,0,1.4,0.2,2c0.1,0.3,0.3,0.6,0.5,0.9
			c0.2,0.3,0.2,0.5,0.2,0.7c0,0.2,0,0.4-0.1,0.6c-0.1,0.8-0.3,1.5-0.5,2.2l0,0c0,0.1-0.1,0.2-0.1,0.2c-0.4,0.3-0.7,1-0.9,1.7
			c-0.2,0.7-0.4,1.3-0.5,2c-0.3,1.4-0.5,2.8-0.7,4.2c-0.4,2.8-0.6,5.6-0.8,8.5c0,0.4,0,0.6,0.1,0.8c0.1,0.2,0.4,0.4,0.7,0.6
			c0.3,0.2,0.6,0.3,1,0.5c0.1,0.1,0.5,0.3,0.5,0.7c0,0.4-0.1,0.6-0.2,0.7c-0.2,0.4-0.4,0.6-0.6,0.9c-0.2,0.3-0.3,0.6-0.3,0.7
			c0.1,0.2,0.3,0.4,0.5,0.6c0.3,0.2,0.5,0.4,0.8,0.6c0.6,0.4,1.2,0.7,1.8,1.2c0.6,0.5,1,1.2,1.4,1.8c0.3,0.7,0.6,1.3,0.8,2
			c0.2,0.6,0.7,1,1.3,1.2l0,0c0.1,0,0.2,0.1,0.2,0.2c0.2,0.3,0.4,0.7,0.7,0.9c0.1,0.1,0.3,0.2,0.5,0.2c0.1,0,0.2,0,0.2,0
			c0.1,0,0.3,0,0.4,0c1,0,1.9,0.1,2.8,0.3l-0.2,0l1.5-0.5c0.1,0,0.2,0,0.3,0l0,0c1.1,0.5,2.4,0.6,3.4,0.1c0.2-0.1,0.5-0.3,0.7-0.5
			c0.2-0.2,0.4-0.4,0.4-0.5c0-0.1-0.1-0.3-0.3-0.5c-0.1-0.1-0.2-0.2-0.4-0.4c-0.1-0.1-0.1-0.2-0.1-0.4c0-0.1,0.1-0.3,0.2-0.4
			c0.1-0.1,0.2-0.1,0.3-0.1l-0.4,0.4l-0.1-0.9c0-0.1,0-0.2,0.1-0.2l0,0c0.3-0.5,0.7-1.2,0.8-1.7l0.1,0.2c-0.1-0.2-0.2-0.4-0.3-0.6
			c-0.1-0.1-0.1-0.2-0.1-0.3c0-0.1-0.1-0.2-0.1-0.4c0,0,0-0.1,0-0.1l0,0l0.2-0.5l0.1-0.3l0-0.1c0-0.1,0,0.1,0,0.1
			c0.1,0.1-0.1,0-0.2-0.1c-0.2,0-0.3-0.1-0.5-0.1c-0.7-0.1-1.4-0.1-2.2-0.2c-0.1,0-0.3-0.1-0.3-0.2l0-0.1c0-0.1,0,0-0.1-0.1
			c-0.1-0.1-0.2-0.1-0.4-0.2c-0.3-0.1-0.6-0.3-0.8-0.5c-0.1-0.1-0.1-0.1-0.2-0.2c-0.1-0.5-0.3-1-0.5-1.4c-0.3-0.4-0.6-0.8-1-1.2
			c0,0-0.1-0.1-0.1-0.1l0,0c-0.1-0.2-0.2-0.4-0.3-0.5c-0.1-0.1-0.3-0.3-0.4-0.3c-0.1-0.1-0.3-0.1-0.5-0.1c-0.2,0-0.4,0.1-0.5,0.1
			l0,0c-0.2,0.1-0.4,0-0.5-0.2c0-0.1,0-0.1,0-0.2v-0.3l0.3,0.4c-1.2-0.3-2.3-0.5-3.5-0.9c0,0-0.1,0-0.1-0.1
			c-0.3-0.2-0.6-0.3-0.8-0.3c-0.1,0-0.2,0.1-0.3,0.2c-0.1,0.1-0.2,0.2-0.4,0.4c0,0-0.1,0.1-0.1,0.1c-0.1,0-0.1,0.1-0.2,0.1l0,0
			c-1.3-0.2-2.7,0-3.9,0.4l-0.1,0l0,0c-0.1,0-0.3,0-0.3-0.2c0,0,0-0.1,0-0.1l0.3-3.6c0-0.1,0.1-0.1,0.1-0.1c0.1,0,0.1,0.1,0.1,0.1
			l0,3.6l-0.3-0.2l0.1,0c1.3-0.5,2.7-0.8,4.2-0.7l-0.2,0.1c0,0,0,0,0,0c0.1-0.1,0.2-0.3,0.4-0.4c0.2-0.2,0.4-0.3,0.7-0.3
			c0.6-0.1,1,0.2,1.4,0.4l-0.1-0.1c1.1,0.4,2.2,0.7,3.4,0.9c0.2,0,0.3,0.2,0.3,0.4v0.3L25,31.8c0.3-0.1,0.5-0.2,0.8-0.2
			c0.3,0,0.6,0,0.9,0.1c0.3,0.1,0.5,0.3,0.7,0.5c0.2,0.2,0.3,0.5,0.4,0.7l-0.1-0.1c0.4,0.4,0.8,0.8,1.1,1.3c0.3,0.5,0.5,1.1,0.6,1.6
			l-0.2-0.2c0.2,0.2,0.5,0.3,0.7,0.4c0.1,0.1,0.3,0.1,0.4,0.2c0.2,0.1,0.4,0.4,0.4,0.6l-0.3-0.3c0.7,0.1,1.5,0.1,2.2,0.2
			c0.2,0,0.4,0.1,0.6,0.1c0.1,0,0.2,0.1,0.3,0.1c0.1,0.1,0.3,0.1,0.4,0.4c0.1,0.1,0,0.4,0,0.4l0,0.1L34,38l-0.2,0.5l0-0.2
			c0,0,0,0.1,0.1,0.2c0,0.1,0.1,0.2,0.1,0.2c0.1,0.2,0.2,0.3,0.3,0.5l0,0c0.1,0.1,0.1,0.2,0.1,0.2c0,0.4-0.2,0.8-0.3,1.1
			c-0.2,0.3-0.3,0.6-0.5,1l0.1-0.3l0.1,0.9l-0.4,0.4c0,0,0,0,0.1,0c0.1,0,0.1-0.2,0.1-0.2c0-0.1,0,0,0,0c0.1,0.1,0.2,0.2,0.3,0.3
			c0.1,0.1,0.2,0.2,0.4,0.4c0.1,0.2,0.2,0.4,0.2,0.7c-0.1,0.5-0.4,0.8-0.7,1c-0.3,0.2-0.5,0.4-0.9,0.6c-0.6,0.3-1.4,0.4-2.1,0.4
			c-0.7-0.1-1.3-0.2-2-0.5l0.3,0l-1.5,0.5c-0.1,0-0.1,0-0.2,0l0,0c-0.8-0.2-1.8-0.3-2.6-0.3c-0.1,0-0.2,0-0.3,0c-0.1,0-0.3,0-0.4,0
			c-0.3,0-0.6-0.1-0.8-0.3c-0.5-0.3-0.8-0.7-1-1.2l0.2,0.2c-0.4-0.1-0.8-0.3-1.1-0.6c-0.3-0.3-0.6-0.7-0.7-1
			c-0.3-0.7-0.5-1.3-0.8-1.9c-0.3-0.6-0.7-1.2-1.2-1.6c-0.5-0.4-1.2-0.7-1.8-1.1c-0.3-0.2-0.6-0.4-0.9-0.6c-0.3-0.2-0.6-0.5-0.8-1
			c-0.1-0.3,0-0.6,0.1-0.8c0.1-0.2,0.2-0.4,0.3-0.5c0.2-0.3,0.4-0.6,0.6-0.9c0.1-0.1,0.1-0.3,0.1-0.3c0,0,0,0-0.2-0.1
			c-0.3-0.2-0.6-0.3-1-0.5c-0.3-0.2-0.7-0.4-0.9-0.8c-0.2-0.4-0.3-0.9-0.2-1.3c0.2-2.8,0.4-5.7,0.8-8.5c0.2-1.4,0.4-2.8,0.7-4.2
			c0.2-0.7,0.3-1.4,0.6-2.1c0.3-0.7,0.5-1.4,1.2-2L17,14.6c0.2-0.8,0.4-1.5,0.5-2.2c0-0.3,0.1-0.8,0-0.9c-0.2-0.3-0.4-0.7-0.6-1.1
			c-0.3-0.8-0.4-1.6-0.3-2.4c0.1-0.8,0.4-1.6,0.9-2.2l0,0.1c0.3-0.8,0.6-1.6,1.1-2.3c0.2-0.4,0.5-0.8,0.8-1.1
			c0.3-0.3,0.8-0.6,1.4-0.7c0.1,0,0.2,0.1,0.3,0.1c0.3,0.4,0.4,0.9,0.6,1.3c0.1,0.4,0.2,0.9,0.3,1.1c0.1,0.1-0.1,0,0.3,0.1
			c0.2,0,0.5,0.1,0.7,0.1c0.4,0.1,0.7,0.1,1.1-0.1l-0.1,0c0.1-0.1,0.3-0.4,0.4-0.6c0.1-0.3,0.2-0.6,0.3-0.9c0.1-0.3,0.2-0.7,0.4-1
			c0.1-0.2,0.2-0.4,0.6-0.5c0.1-0.1,0.4,0,0.5,0.1c0.1,0.1,0.2,0.2,0.3,0.3c0.4,0.7,0.6,1.3,0.8,2c0.2,0.7,0.3,1.3,0.4,2
			c0,0,0,0.1,0,0.1L27,10.3c-0.1,0.8-0.2,1.5-0.3,2.3l-0.1,0.6c0,0.1,0,0.2-0.1,0.3c0,0.1,0,0.2-0.1,0.4c-0.1,0.1,0,0.1-0.1,0.1
			c0,0,0,0,0,0.1c0,0,0,0.1,0,0.2c0,0.1,0,0.3,0.1,0.4l0,0c0.8,1.4,1.4,3,1.9,4.5c0.5,1.6,0.7,3.2,0.8,4.8l0-0.1
			c1.2,4,2.7,7.9,4.3,11.7l0,0c0.1,0.2,0,0.4-0.2,0.5C32.9,36.2,32.7,36.1,32.6,35.9L32.6,35.9z"/>
	</g>
</g>
</svg>
