<?xml version="1.0" encoding="utf-8"?>
<!-- Generator: Adobe Illustrator 24.3.0, SVG Export Plug-In . SVG Version: 6.00 Build 0)  -->
<svg version="1.1" id="Слой_1" xmlns="http://www.w3.org/2000/svg" xmlns:xlink="http://www.w3.org/1999/xlink" x="0px" y="0px"
	 viewBox="0 0 1920 1080" style="enable-background:new 0 0 1920 1080;" xml:space="preserve">
<style type="text/css">
	.st0{fill:#CBC9FF;stroke:#000000;stroke-width:0.5;stroke-miterlimit:10;}
	.st1{fill:none;stroke:#000000;stroke-width:0.5;stroke-miterlimit:10;}
	.st2{fill:none;}
	.st3{fill:none;stroke:#EFBC81;stroke-width:0.5;stroke-miterlimit:10;}
	.st4{fill:none;stroke:#000000;stroke-width:0.75;stroke-miterlimit:10;}
	.st5{fill:#CBC9FF;}
	.st6{fill:#FFFFFF;stroke:#000000;stroke-width:0.5;stroke-miterlimit:10;}
	.st7{fill:#6B6966;}
	.st8{fill:none;stroke:#000000;stroke-width:0.25;stroke-miterlimit:10;}
	.st9{fill:#FFFDE8;}
</style>
<polyline class="st0" points="905,250.6 905,317.2 855.7,317.2 855.7,249.7 "/>
<g>
	<path class="st1" d="M277.9,306.1c441.8-189.7,917.8-189.7,1359.6,0"/>
</g>
<line class="st1" x1="278.1" y1="164.1" x2="16.3" y2="164.1"/>
<polyline class="st1" points="16.8,163.1 31.5,236.5 31.5,316.5 16.3,338.2 "/>
<rect x="15.9" y="338.4" class="st2" width="1886" height="723"/>
<line class="st3" x1="42" y1="317" x2="278.1" y2="317"/>
<polyline class="st4" points="277,1060.8 277,341.4 675.8,341.4 "/>
<line class="st4" x1="1638.4" y1="1061.2" x2="1638.4" y2="341.4"/>
<line class="st3" x1="42" y1="198.1" x2="278.1" y2="198.1"/>
<line class="st3" x1="42.4" y1="198.1" x2="42.4" y2="315.9"/>
<line class="st1" x1="278.1" y1="173.3" x2="19.5" y2="173.3"/>
<line class="st1" x1="278.1" y1="183.2" x2="21.1" y2="183.2"/>
<path class="st5" d="M687.1,324.4"/>
<line class="st1" x1="1640.2" y1="164.5" x2="1902.1" y2="164.5"/>
<line class="st3" x1="1876.4" y1="317.4" x2="1640.2" y2="317.4"/>
<line class="st3" x1="1876.4" y1="198.5" x2="1640.2" y2="198.5"/>
<line class="st3" x1="1875.9" y1="198.5" x2="1875.9" y2="316.3"/>
<line class="st1" x1="1640.2" y1="173.7" x2="1898.9" y2="173.7"/>
<line class="st1" x1="1640.2" y1="183.6" x2="1897.3" y2="183.6"/>
<g>
	<path class="st1" d="M279.7,163.6c441.8-189.7,917.8-189.7,1359.6,0"/>
</g>
<g>
	<path class="st1" d="M278.7,173.7C720.6-16,1196.5-16,1638.3,173.7"/>
</g>
<g>
	<path class="st1" d="M279.4,182.9C721.2-6.8,1197.2-6.8,1639,182.9"/>
</g>
<g>
	<path class="st3" d="M279.4,197.8C721.2,8.1,1197.2,8.1,1639,197.8"/>
</g>
<line class="st1" x1="392.6" y1="482.2" x2="392.6" y2="1060.8"/>
<line class="st1" x1="435.3" y1="482.3" x2="435.3" y2="1060.8"/>
<line class="st1" x1="538.8" y1="481.5" x2="538.8" y2="1061.6"/>
<line class="st1" x1="581.5" y1="481.5" x2="581.5" y2="1061.6"/>
<polyline class="st1" points="687.8,1061.2 687.8,481.5 276.5,481.5 "/>
<polygon class="st4" points="1226.7,386 1241.4,324.5 672.4,324.5 687.2,386 "/>
<polyline class="st4" points="1238,341.4 1643.6,341.4 1902.3,341.4 "/>
<polyline class="st1" points="15.9,338.3 15.9,1061.3 1901.8,1061.3 1902.1,338.6 1886.8,316.8 1886.8,236.9 1901.6,163.4 "/>
<line class="st4" x1="277" y1="341.4" x2="16.3" y2="341.4"/>
<line class="st1" x1="1539.5" y1="482" x2="1539.5" y2="1060.8"/>
<line class="st1" x1="1492" y1="481.5" x2="1492" y2="1061.2"/>
<line class="st1" x1="1375.6" y1="481.5" x2="1375.6" y2="1061.2"/>
<line class="st1" x1="1332.9" y1="481.5" x2="1332.9" y2="1061.2"/>
<path class="st0" d="M687.1,483.6"/>
<polyline class="st1" points="687.8,386 687.8,481.5 1224.4,481.5 1224.4,386 "/>
<polyline class="st1" points="1224.4,1061.2 1224.4,481.5 1638.8,481.5 "/>
<line class="st1" x1="682.6" y1="367" x2="1231.2" y2="367"/>
<line class="st1" x1="677.3" y1="344.9" x2="1236.5" y2="344.9"/>
<line class="st1" x1="688.2" y1="457.1" x2="1224.4" y2="457.1"/>
<line class="st1" x1="276.5" y1="564.4" x2="392.6" y2="564.4"/>
<line class="st1" x1="435.9" y1="564.3" x2="538.4" y2="564.3"/>
<line class="st1" x1="1638.6" y1="564.3" x2="1539.2" y2="564.3"/>
<line class="st1" x1="1489.4" y1="566.5" x2="1375.4" y2="566.5"/>
<line class="st1" x1="1332.9" y1="564.3" x2="1224.4" y2="564.3"/>
<line class="st1" x1="846.6" y1="481.5" x2="846.6" y2="1058.2"/>
<line class="st1" x1="973.5" y1="483" x2="973.5" y2="1061.8"/>
<line class="st1" x1="1193.6" y1="1061.2" x2="1193.6" y2="481.5"/>
<path class="st1" d="M1100.4,1061.4V481.5V1061.4z"/>
<line class="st1" x1="1100.7" y1="1047.4" x2="1193.8" y2="1047.4"/>
<line class="st1" x1="1100.7" y1="769.2" x2="1193.8" y2="769.2"/>
<line class="st1" x1="1100.7" y1="741.2" x2="1193.8" y2="741.2"/>
<line class="st1" x1="1185.8" y1="481.5" x2="1147.2" y2="541"/>
<line class="st1" x1="1108.7" y1="481.5" x2="1147.2" y2="541"/>
<line class="st1" x1="1100.7" y1="745.9" x2="1193.8" y2="745.9"/>
<line class="st1" x1="1152.9" y1="740.6" x2="1152.9" y2="555.9"/>
<line class="st1" x1="1142.4" y1="740.6" x2="1142.4" y2="555.9"/>
<line class="st2" x1="1195.4" y1="490" x2="1152.1" y2="557.1"/>
<line class="st2" x1="1097.4" y1="490" x2="1142.4" y2="555.9"/>
<line class="st1" x1="1152.8" y1="555.9" x2="1193.6" y2="492.9"/>
<path class="st1" d="M1100.4,492.9"/>
<line class="st1" x1="1142.5" y1="555.9" x2="1100.7" y2="494.3"/>
<line class="st1" x1="1125.7" y1="507" x2="1140.8" y2="481.5"/>
<line class="st1" x1="1126.3" y1="508.7" x2="1142.4" y2="481.5"/>
<line class="st1" x1="1169.1" y1="507" x2="1154" y2="481.5"/>
<line class="st1" x1="1168.6" y1="508.7" x2="1152.4" y2="481.5"/>
<line class="st1" x1="1120.4" y1="523.3" x2="1120.4" y2="591.9"/>
<line class="st1" x1="1121.7" y1="525.5" x2="1121.7" y2="591.9"/>
<line class="st1" x1="1121.4" y1="591.9" x2="1142.3" y2="591.9"/>
<line class="st1" x1="1100.7" y1="591.9" x2="1120.7" y2="591.9"/>
<line class="st1" x1="1121.4" y1="593.6" x2="1142.3" y2="593.6"/>
<line class="st1" x1="1100.7" y1="593.6" x2="1120.7" y2="593.6"/>
<line class="st1" x1="1121.7" y1="593.5" x2="1121.7" y2="740.6"/>
<line class="st1" x1="1120.4" y1="593.5" x2="1120.4" y2="740.6"/>
<line class="st1" x1="1174.4" y1="523.3" x2="1174.4" y2="591.9"/>
<line class="st1" x1="1173.1" y1="525.5" x2="1173.1" y2="591.9"/>
<line class="st1" x1="1173.4" y1="591.9" x2="1152.5" y2="591.9"/>
<line class="st1" x1="1194.1" y1="591.9" x2="1174.1" y2="591.9"/>
<line class="st1" x1="1173.4" y1="593.6" x2="1152.5" y2="593.6"/>
<line class="st1" x1="1194.1" y1="593.6" x2="1174.1" y2="593.6"/>
<line class="st1" x1="1173.1" y1="593.5" x2="1173.1" y2="740.6"/>
<line class="st1" x1="1174.4" y1="593.5" x2="1174.4" y2="740.6"/>
<line class="st1" x1="1152.9" y1="1046.8" x2="1152.9" y2="769.1"/>
<line class="st1" x1="1142.4" y1="1047.1" x2="1142.4" y2="769.6"/>
<line class="st1" x1="1174.9" y1="769.3" x2="1174.9" y2="898.7"/>
<line class="st1" x1="1173.6" y1="769.3" x2="1173.6" y2="898.7"/>
<line class="st1" x1="1174" y1="898.7" x2="1153.1" y2="898.7"/>
<line class="st1" x1="1193.8" y1="898.7" x2="1174.6" y2="898.7"/>
<line class="st1" x1="1174" y1="900.4" x2="1153.1" y2="900.4"/>
<line class="st1" x1="1193.8" y1="900.4" x2="1174.6" y2="900.4"/>
<line class="st1" x1="1173.6" y1="900.2" x2="1173.6" y2="1047.3"/>
<line class="st1" x1="1174.9" y1="900.2" x2="1174.9" y2="1047.3"/>
<line class="st1" x1="1120.5" y1="769.4" x2="1120.5" y2="898.8"/>
<line class="st1" x1="1121.8" y1="769.4" x2="1121.8" y2="898.8"/>
<line class="st1" x1="1121.4" y1="898.8" x2="1142.3" y2="898.8"/>
<line class="st1" x1="1100.7" y1="898.8" x2="1120.8" y2="898.8"/>
<line class="st1" x1="1121.4" y1="900.5" x2="1142.3" y2="900.5"/>
<line class="st1" x1="1100.7" y1="900.5" x2="1120.8" y2="900.5"/>
<line class="st1" x1="1121.8" y1="900.3" x2="1121.8" y2="1047.4"/>
<line class="st1" x1="1120.5" y1="900.3" x2="1120.5" y2="1047.4"/>
<line class="st1" x1="1066.7" y1="1061.2" x2="1066.7" y2="481.2"/>
<path class="st1" d="M973.5,1061V482.2V1061z"/>
<line class="st1" x1="973.8" y1="1047.4" x2="1066.9" y2="1047.4"/>
<line class="st1" x1="973.8" y1="768.9" x2="1066.9" y2="768.9"/>
<line class="st1" x1="973.8" y1="740.8" x2="1066.9" y2="740.8"/>
<line class="st1" x1="1058.9" y1="481.2" x2="1020.3" y2="540.6"/>
<line class="st1" x1="981.8" y1="481.2" x2="1020.3" y2="540.6"/>
<line class="st1" x1="973.8" y1="745.5" x2="1066.9" y2="745.5"/>
<line class="st1" x1="1026" y1="740.2" x2="1026" y2="555.5"/>
<line class="st1" x1="1015.5" y1="740.2" x2="1015.5" y2="555.5"/>
<line class="st2" x1="1068.5" y1="489.7" x2="1025.2" y2="556.7"/>
<line class="st2" x1="970.5" y1="489.7" x2="1015.5" y2="555.5"/>
<line class="st1" x1="1026" y1="555.5" x2="1066.7" y2="492.5"/>
<line class="st1" x1="1015.6" y1="555.5" x2="973.8" y2="493.9"/>
<line class="st1" x1="998.8" y1="506.7" x2="1013.9" y2="481.2"/>
<line class="st1" x1="999.4" y1="508.3" x2="1015.5" y2="481.2"/>
<line class="st1" x1="1042.2" y1="506.7" x2="1027.1" y2="481.2"/>
<line class="st1" x1="1041.7" y1="508.3" x2="1025.5" y2="481.2"/>
<line class="st1" x1="993.5" y1="522.9" x2="993.5" y2="591.6"/>
<line class="st1" x1="994.8" y1="525.1" x2="994.8" y2="591.6"/>
<line class="st1" x1="994.5" y1="591.6" x2="1015.4" y2="591.6"/>
<line class="st1" x1="973.8" y1="591.6" x2="993.8" y2="591.6"/>
<line class="st1" x1="994.5" y1="593.3" x2="1015.4" y2="593.3"/>
<line class="st1" x1="973.8" y1="593.3" x2="993.8" y2="593.3"/>
<line class="st1" x1="994.8" y1="593.1" x2="994.8" y2="740.2"/>
<line class="st1" x1="993.5" y1="593.1" x2="993.5" y2="740.2"/>
<line class="st1" x1="1047.5" y1="522.9" x2="1047.5" y2="591.6"/>
<line class="st1" x1="1046.2" y1="525.1" x2="1046.2" y2="591.6"/>
<line class="st1" x1="1046.5" y1="591.6" x2="1025.6" y2="591.6"/>
<line class="st1" x1="1067.2" y1="591.6" x2="1047.2" y2="591.6"/>
<line class="st1" x1="1046.5" y1="593.3" x2="1025.6" y2="593.3"/>
<line class="st1" x1="1067.2" y1="593.3" x2="1047.2" y2="593.3"/>
<line class="st1" x1="1046.2" y1="593.1" x2="1046.2" y2="740.2"/>
<line class="st1" x1="1047.5" y1="593.1" x2="1047.5" y2="740.2"/>
<line class="st1" x1="1026" y1="1046.8" x2="1026" y2="768.7"/>
<line class="st1" x1="1015.5" y1="1046.8" x2="1015.5" y2="769.3"/>
<line class="st1" x1="1048" y1="768.9" x2="1048" y2="898.3"/>
<line class="st1" x1="1046.7" y1="768.9" x2="1046.7" y2="898.3"/>
<line class="st1" x1="1047.1" y1="898.3" x2="1026.2" y2="898.3"/>
<line class="st1" x1="1066.9" y1="898.3" x2="1047.7" y2="898.3"/>
<line class="st1" x1="1047.1" y1="900" x2="1026.2" y2="900"/>
<line class="st1" x1="1066.9" y1="900" x2="1047.7" y2="900"/>
<line class="st1" x1="1046.7" y1="899.8" x2="1046.7" y2="1046.9"/>
<line class="st1" x1="1048" y1="899.8" x2="1048" y2="1046.9"/>
<line class="st1" x1="993.6" y1="769" x2="993.6" y2="898.4"/>
<line class="st1" x1="994.9" y1="769" x2="994.9" y2="898.4"/>
<line class="st1" x1="994.5" y1="898.4" x2="1015.4" y2="898.4"/>
<line class="st1" x1="973.8" y1="898.4" x2="993.9" y2="898.4"/>
<line class="st1" x1="994.5" y1="900.1" x2="1015.4" y2="900.1"/>
<line class="st1" x1="973.8" y1="900.1" x2="993.9" y2="900.1"/>
<line class="st1" x1="994.9" y1="899.9" x2="994.9" y2="1047"/>
<line class="st1" x1="993.6" y1="899.9" x2="993.6" y2="1047"/>
<line class="st1" x1="939.8" y1="1061.2" x2="939.8" y2="482.2"/>
<path class="st1" d="M846.6,1061.7V483.2V1061.7z"/>
<line class="st1" x1="846.8" y1="1047.4" x2="940" y2="1047.4"/>
<line class="st1" x1="846.8" y1="769.9" x2="940" y2="769.9"/>
<line class="st1" x1="846.8" y1="741.8" x2="940" y2="741.8"/>
<line class="st1" x1="932" y1="482.2" x2="893.4" y2="541.6"/>
<line class="st1" x1="854.9" y1="482.2" x2="893.4" y2="541.6"/>
<line class="st1" x1="846.8" y1="746.5" x2="940" y2="746.5"/>
<line class="st1" x1="899.1" y1="741.2" x2="899.1" y2="556.5"/>
<line class="st1" x1="888.6" y1="741.2" x2="888.6" y2="556.5"/>
<line class="st2" x1="941.6" y1="490.7" x2="898.3" y2="557.7"/>
<line class="st2" x1="843.6" y1="490.7" x2="888.6" y2="556.5"/>
<line class="st1" x1="899" y1="556.5" x2="939.8" y2="493.6"/>
<line class="st1" x1="888.7" y1="556.5" x2="846.8" y2="494.9"/>
<line class="st1" x1="871.9" y1="507.7" x2="887" y2="482.2"/>
<line class="st1" x1="872.5" y1="509.3" x2="888.6" y2="482.2"/>
<line class="st1" x1="915.3" y1="507.7" x2="900.2" y2="482.2"/>
<line class="st1" x1="914.7" y1="509.3" x2="898.6" y2="482.2"/>
<line class="st1" x1="866.6" y1="523.9" x2="866.6" y2="592.6"/>
<line class="st1" x1="867.9" y1="526.1" x2="867.9" y2="592.6"/>
<line class="st1" x1="867.6" y1="592.6" x2="888.5" y2="592.6"/>
<line class="st1" x1="846.8" y1="592.6" x2="866.9" y2="592.6"/>
<line class="st1" x1="867.6" y1="594.3" x2="888.5" y2="594.3"/>
<line class="st1" x1="846.8" y1="594.3" x2="866.9" y2="594.3"/>
<line class="st1" x1="867.9" y1="594.1" x2="867.9" y2="741.2"/>
<line class="st1" x1="866.6" y1="594.1" x2="866.6" y2="741.2"/>
<line class="st1" x1="920.6" y1="523.9" x2="920.6" y2="592.6"/>
<line class="st1" x1="919.3" y1="526.1" x2="919.3" y2="592.6"/>
<line class="st1" x1="919.6" y1="592.6" x2="898.7" y2="592.6"/>
<line class="st1" x1="940.3" y1="592.6" x2="920.3" y2="592.6"/>
<line class="st1" x1="919.6" y1="594.3" x2="898.7" y2="594.3"/>
<line class="st1" x1="940.3" y1="594.3" x2="920.3" y2="594.3"/>
<line class="st1" x1="919.3" y1="594.1" x2="919.3" y2="741.2"/>
<line class="st1" x1="920.6" y1="594.1" x2="920.6" y2="741.2"/>
<line class="st1" x1="899.1" y1="1047.3" x2="899.1" y2="769.8"/>
<line class="st1" x1="888.6" y1="1047.8" x2="888.6" y2="770.3"/>
<line class="st1" x1="921.1" y1="769.9" x2="921.1" y2="899.3"/>
<line class="st1" x1="919.8" y1="769.9" x2="919.8" y2="899.3"/>
<line class="st1" x1="920.2" y1="899.3" x2="899.2" y2="899.3"/>
<line class="st1" x1="940" y1="899.3" x2="920.8" y2="899.3"/>
<line class="st1" x1="920.2" y1="901" x2="899.2" y2="901"/>
<line class="st1" x1="940" y1="901" x2="920.8" y2="901"/>
<line class="st1" x1="919.8" y1="900.8" x2="919.8" y2="1047.9"/>
<line class="st1" x1="921.1" y1="900.8" x2="921.1" y2="1047.9"/>
<line class="st1" x1="866.7" y1="770" x2="866.7" y2="899.4"/>
<line class="st1" x1="868" y1="770" x2="868" y2="899.4"/>
<line class="st1" x1="867.6" y1="899.4" x2="888.5" y2="899.4"/>
<line class="st1" x1="846.8" y1="899.4" x2="867" y2="899.4"/>
<line class="st1" x1="867.6" y1="901.1" x2="888.5" y2="901.1"/>
<line class="st1" x1="846.8" y1="901.1" x2="867" y2="901.1"/>
<line class="st1" x1="868" y1="900.9" x2="868" y2="1048"/>
<line class="st1" x1="866.7" y1="900.9" x2="866.7" y2="1048"/>
<line class="st1" x1="814.5" y1="1061.2" x2="814.5" y2="482"/>
<path class="st1" d="M721.3,1061.2V481.5V1061.2z"/>
<line class="st1" x1="721.5" y1="1047.4" x2="814.7" y2="1047.4"/>
<line class="st1" x1="721.5" y1="770.2" x2="814.7" y2="770.2"/>
<line class="st1" x1="721.5" y1="742.1" x2="814.7" y2="742.1"/>
<line class="st1" x1="806.7" y1="482.5" x2="768.1" y2="541.9"/>
<line class="st1" x1="729.6" y1="482.5" x2="768.1" y2="541.9"/>
<line class="st1" x1="721.5" y1="746.8" x2="814.7" y2="746.8"/>
<line class="st1" x1="773.7" y1="741.5" x2="773.7" y2="556.8"/>
<line class="st1" x1="763.3" y1="741.5" x2="763.3" y2="556.8"/>
<line class="st2" x1="816.3" y1="491" x2="772.9" y2="558"/>
<line class="st2" x1="718.3" y1="491" x2="763.3" y2="556.8"/>
<line class="st1" x1="773.7" y1="556.8" x2="814.5" y2="493.9"/>
<line class="st1" x1="763.4" y1="556.8" x2="721.5" y2="495.2"/>
<line class="st1" x1="746.6" y1="508" x2="761.7" y2="482.5"/>
<line class="st1" x1="747.2" y1="509.6" x2="763.3" y2="482.5"/>
<line class="st1" x1="790" y1="508" x2="774.9" y2="482.5"/>
<line class="st1" x1="789.4" y1="509.6" x2="773.3" y2="482.5"/>
<line class="st1" x1="741.3" y1="524.2" x2="741.3" y2="592.9"/>
<line class="st1" x1="742.6" y1="526.4" x2="742.6" y2="592.9"/>
<line class="st1" x1="742.2" y1="592.9" x2="763.2" y2="592.9"/>
<line class="st1" x1="721.5" y1="592.9" x2="741.6" y2="592.9"/>
<line class="st1" x1="742.2" y1="594.6" x2="763.2" y2="594.6"/>
<line class="st1" x1="721.5" y1="594.6" x2="741.6" y2="594.6"/>
<line class="st1" x1="742.6" y1="594.4" x2="742.6" y2="741.5"/>
<line class="st1" x1="741.3" y1="594.4" x2="741.3" y2="741.5"/>
<line class="st1" x1="795.3" y1="523.4" x2="795.3" y2="592.9"/>
<line class="st1" x1="794" y1="526.4" x2="794" y2="592.9"/>
<line class="st1" x1="794.3" y1="592.9" x2="773.4" y2="592.9"/>
<line class="st1" x1="815" y1="592.9" x2="795" y2="592.9"/>
<line class="st1" x1="794.3" y1="594.6" x2="773.4" y2="594.6"/>
<line class="st1" x1="815" y1="594.6" x2="795" y2="594.6"/>
<line class="st1" x1="794" y1="594.4" x2="794" y2="741.5"/>
<line class="st1" x1="795.3" y1="594.4" x2="795.3" y2="741.5"/>
<line class="st1" x1="773.7" y1="1047.6" x2="773.7" y2="770.1"/>
<line class="st1" x1="763.3" y1="1048.1" x2="763.3" y2="770.6"/>
<line class="st1" x1="795.8" y1="770.2" x2="795.8" y2="899.6"/>
<line class="st1" x1="794.5" y1="770.2" x2="794.5" y2="899.6"/>
<line class="st1" x1="794.9" y1="899.6" x2="773.9" y2="899.6"/>
<line class="st1" x1="814.7" y1="899.6" x2="795.5" y2="899.6"/>
<line class="st1" x1="794.9" y1="901.3" x2="773.9" y2="901.3"/>
<line class="st1" x1="814.7" y1="901.3" x2="795.5" y2="901.3"/>
<line class="st1" x1="794.5" y1="901.1" x2="794.5" y2="1048.2"/>
<line class="st1" x1="795.8" y1="901.1" x2="795.8" y2="1048.4"/>
<line class="st1" x1="741.4" y1="770.3" x2="741.4" y2="899.7"/>
<line class="st1" x1="742.6" y1="770.3" x2="742.6" y2="899.7"/>
<line class="st1" x1="742.3" y1="899.7" x2="763.2" y2="899.7"/>
<line class="st1" x1="721.5" y1="899.7" x2="741.7" y2="899.7"/>
<line class="st1" x1="742.3" y1="901.4" x2="763.2" y2="901.4"/>
<line class="st1" x1="721.5" y1="901.4" x2="741.7" y2="901.4"/>
<line class="st1" x1="742.6" y1="901.5" x2="742.6" y2="1048"/>
<line class="st1" x1="741.4" y1="901.5" x2="741.4" y2="1048"/>
<line class="st1" x1="688.6" y1="564.3" x2="581" y2="564.3"/>
<line class="st2" x1="959.3" y1="175.4" x2="959.3" y2="317.6"/>
<line class="st2" x1="957.7" y1="175.4" x2="957.7" y2="317.6"/>
<polygon class="st2" points="958.5,168.4 1193,328.7 723.9,328.7 "/>
<line class="st2" x1="1156.9" y1="311.7" x2="959.3" y2="175.8"/>
<polyline class="st2" points="959.2,317.4 1156.9,317.4 1156.9,311.7 "/>
<line class="st1" x1="958.4" y1="167.8" x2="752" y2="309.6"/>
<line class="st1" x1="958.1" y1="167.8" x2="1164.9" y2="309.6"/>
<line class="st1" x1="1164.5" y1="309.5" x2="1162.1" y2="314.7"/>
<line class="st1" x1="1162.1" y1="314" x2="1160" y2="312.5"/>
<line class="st1" x1="1160.1" y1="312.4" x2="1160.1" y2="323.7"/>
<polyline class="st0" points="759.6,317.4 759.6,311.7 802.6,282.5 802.6,317.5 "/>
<line class="st1" x1="752" y1="309.5" x2="754.4" y2="314.7"/>
<line class="st1" x1="754.4" y1="314" x2="756.5" y2="312.6"/>
<line class="st1" x1="756.4" y1="312.4" x2="756.4" y2="323.7"/>
<polyline class="st2" points="906.3,250.1 957.7,250.1 957.7,317.4 801.4,317.4 759.6,317.4 "/>
<polyline class="st0" points="905,248 905,211.9 854.2,248 905.3,248 "/>
<polyline class="st0" points="854.1,317 854.1,248 804.3,281.5 804.3,317.6 "/>
<line class="st1" x1="906.6" y1="250.6" x2="906.6" y2="317.2"/>
<path class="st0" d="M905.3,250.1h-49.8H905.3z"/>
<path class="st1" d="M957.4,316.7"/>
<line class="st1" x1="759.6" y1="317.3" x2="802.6" y2="317.3"/>
<line class="st1" x1="804.6" y1="317.3" x2="854.4" y2="317.3"/>
<path class="st1" d="M855.5,317.3h49.8H855.5z"/>
<line class="st1" x1="906.2" y1="317.3" x2="957.7" y2="317.3"/>
<line class="st1" x1="958" y1="250.1" x2="906.3" y2="250.1"/>
<line class="st1" x1="957.7" y1="250.6" x2="957.7" y2="317.3"/>
<path class="st2" d="M957.7,248"/>
<line class="st1" x1="906.3" y1="248" x2="958" y2="248"/>
<polyline class="st0" points="957.7,247.1 957.7,176.3 906.6,211 906.6,247.5 "/>
<path class="st0" d="M905,213.1"/>
<rect x="907.1" y="250.8" class="st5" width="50.1" height="65.8"/>
<line class="st2" x1="959.1" y1="175.4" x2="959.1" y2="317.6"/>
<polyline class="st0" points="1157.2,317.4 1157.2,311.7 1114.1,282.5 1114.1,317.5 "/>
<polyline class="st2" points="1010.5,250.1 959.1,250.1 959.1,317.4 1115.4,317.4 1157.2,317.4 "/>
<polyline class="st0" points="1011.8,248 1011.8,211.9 1062.6,248 1011.5,248 "/>
<polyline class="st0" points="1062.7,317 1062.7,248 1112.5,281.5 1112.5,317.6 "/>
<polyline class="st0" points="1011.8,250.6 1011.8,317.2 1061.1,317.2 1061.1,249.7 "/>
<line class="st1" x1="1010.2" y1="250.6" x2="1010.2" y2="317.2"/>
<path class="st0" d="M1011.5,250.1h49.8H1011.5z"/>
<line class="st1" x1="958.8" y1="250.1" x2="1010.5" y2="250.1"/>
<line class="st1" x1="959.1" y1="250.6" x2="959.1" y2="317.3"/>
<path class="st2" d="M959.1,248"/>
<line class="st1" x1="1010.5" y1="248" x2="958.8" y2="248"/>
<polyline class="st0" points="959.1,247.1 959.1,176.3 1010.2,211 1010.2,247.5 "/>
<rect x="959.6" y="250.8" class="st5" width="50.1" height="65.8"/>
<line class="st1" x1="958.9" y1="317.3" x2="1010.4" y2="317.3"/>
<line class="st1" x1="1157.3" y1="317.3" x2="1114.3" y2="317.3"/>
<line class="st1" x1="1112.4" y1="317.3" x2="1062.6" y2="317.3"/>
<line class="st1" x1="1224" y1="771.4" x2="1333.2" y2="771.4"/>
<line class="st1" x1="1224.4" y1="775.6" x2="1333.6" y2="775.6"/>
<line class="st1" x1="1224.4" y1="811.7" x2="1332.9" y2="811.7"/>
<line class="st1" x1="1376.1" y1="771.4" x2="1492.2" y2="771.4"/>
<line class="st1" x1="1376.6" y1="775.6" x2="1492.6" y2="775.6"/>
<line class="st1" x1="1376.6" y1="811.7" x2="1492.6" y2="811.7"/>
<line class="st1" x1="1540" y1="771.4" x2="1638.5" y2="771.4"/>
<line class="st1" x1="1540.4" y1="775.6" x2="1638.8" y2="775.6"/>
<line class="st1" x1="1540.4" y1="811.7" x2="1638.8" y2="811.7"/>
<line class="st1" x1="581.8" y1="771.4" x2="687.4" y2="771.4"/>
<line class="st1" x1="581.8" y1="775.6" x2="687.8" y2="775.6"/>
<line class="st1" x1="581.8" y1="811.7" x2="687.8" y2="811.7"/>
<line class="st1" x1="435.6" y1="771.4" x2="538.5" y2="771.4"/>
<line class="st1" x1="435.9" y1="775.6" x2="538.5" y2="775.6"/>
<line class="st1" x1="435.9" y1="811.7" x2="538.4" y2="811.7"/>
<line class="st1" x1="276" y1="771.4" x2="392.1" y2="771.4"/>
<line class="st1" x1="276.5" y1="775.6" x2="392.5" y2="775.6"/>
<line class="st1" x1="276.5" y1="811.7" x2="392.5" y2="811.7"/>
<line class="st1" x1="1193.8" y1="1047.4" x2="1224.4" y2="1047.4"/>
<line class="st1" x1="1539.2" y1="1047.4" x2="1902.3" y2="1047.4"/>
<line class="st1" x1="1492.4" y1="1032.5" x2="1539.2" y2="1032.5"/>
<line class="st1" x1="1333.3" y1="1032.5" x2="1375.4" y2="1032.5"/>
<line class="st1" x1="1375.8" y1="1049.5" x2="1492.2" y2="1049.5"/>
<line class="st1" x1="1224.4" y1="1049.5" x2="1332" y2="1049.5"/>
<line class="st1" x1="1224.4" y1="1051.6" x2="1332" y2="1051.6"/>
<line class="st1" x1="1375.8" y1="1051.6" x2="1492.2" y2="1051.6"/>
<line class="st1" x1="1224.4" y1="1053.7" x2="1332" y2="1053.7"/>
<line class="st1" x1="1224.4" y1="1055.9" x2="1332" y2="1055.9"/>
<line class="st1" x1="1224.4" y1="1058" x2="1332" y2="1058"/>
<line class="st1" x1="1375.8" y1="1053.7" x2="1492.2" y2="1053.7"/>
<line class="st1" x1="1375.8" y1="1055.9" x2="1492.2" y2="1055.9"/>
<line class="st1" x1="1375.8" y1="1058" x2="1492.2" y2="1058"/>
<line class="st1" x1="1066.9" y1="1047.4" x2="1100.7" y2="1047.4"/>
<line class="st1" x1="687.8" y1="1047.4" x2="721.5" y2="1047.4"/>
<line class="st1" x1="814.7" y1="1047.4" x2="848.4" y2="1047.4"/>
<line class="st1" x1="938.4" y1="1047.4" x2="975.3" y2="1047.4"/>
<rect x="362.5" y="287.3" class="st0" width="27.3" height="36.1"/>
<rect x="524.7" y="236.3" class="st0" width="27.3" height="36.1"/>
<rect x="662.9" y="204.5" class="st0" width="27.3" height="36.1"/>
<rect x="1524" y="287.3" class="st0" width="27.3" height="36.1"/>
<rect x="1361.7" y="236.3" class="st0" width="27.3" height="36.1"/>
<rect x="1223.6" y="204.5" class="st0" width="27.3" height="36.1"/>
<line class="st1" x1="16.3" y1="1047.4" x2="689.4" y2="1047.4"/>
<line class="st1" x1="312.6" y1="811.6" x2="312.6" y2="865.8"/>
<line class="st1" x1="313.9" y1="811.6" x2="313.9" y2="865.8"/>
<line class="st1" x1="359.2" y1="810.9" x2="359.2" y2="865.2"/>
<line class="st1" x1="360.5" y1="810.9" x2="360.5" y2="865.2"/>
<line class="st1" x1="313.7" y1="865.6" x2="359.5" y2="865.6"/>
<line class="st1" x1="313.7" y1="867.8" x2="359.5" y2="867.8"/>
<line class="st1" x1="360.2" y1="865.5" x2="392.3" y2="865.5"/>
<line class="st1" x1="276.5" y1="865.5" x2="312.7" y2="865.5"/>
<line class="st1" x1="276.5" y1="867.8" x2="312.7" y2="867.8"/>
<line class="st1" x1="360.2" y1="867.8" x2="392.3" y2="867.8"/>
<line class="st1" x1="312.6" y1="868.3" x2="312.6" y2="1047.9"/>
<line class="st1" x1="313.9" y1="868.3" x2="313.9" y2="1047.9"/>
<line class="st1" x1="359.2" y1="868.3" x2="359.2" y2="1047.9"/>
<line class="st1" x1="360.5" y1="868.3" x2="360.5" y2="1047.9"/>
<rect x="320.7" y="877.5" class="st1" width="32.1" height="159.2"/>
<line class="st1" x1="461.1" y1="810.9" x2="461.1" y2="865.1"/>
<line class="st1" x1="462.3" y1="810.9" x2="462.3" y2="865.1"/>
<line class="st1" x1="507.6" y1="812.8" x2="507.6" y2="864.5"/>
<line class="st1" x1="508.9" y1="812.8" x2="508.9" y2="864.5"/>
<line class="st1" x1="462.1" y1="864.9" x2="507.9" y2="864.9"/>
<line class="st1" x1="462.1" y1="867.1" x2="507.9" y2="867.1"/>
<line class="st1" x1="508.7" y1="865.4" x2="538.4" y2="865.4"/>
<line class="st1" x1="435.6" y1="864.8" x2="461.1" y2="864.8"/>
<line class="st1" x1="435.6" y1="867.1" x2="461.1" y2="867.1"/>
<line class="st1" x1="508.7" y1="867.1" x2="538.4" y2="867.1"/>
<line class="st1" x1="461.1" y1="867.6" x2="461.1" y2="1047.2"/>
<line class="st1" x1="462.3" y1="867.6" x2="462.3" y2="1047.2"/>
<line class="st1" x1="507.6" y1="867.6" x2="507.6" y2="1047.2"/>
<line class="st1" x1="508.9" y1="867.6" x2="508.9" y2="1047.2"/>
<rect x="469.1" y="876.8" class="st1" width="32.1" height="159.2"/>
<line class="st1" x1="609.7" y1="810.9" x2="609.7" y2="865.1"/>
<line class="st1" x1="611" y1="810.9" x2="611" y2="865.1"/>
<line class="st1" x1="656.3" y1="810.6" x2="656.3" y2="864.5"/>
<line class="st1" x1="657.6" y1="810.6" x2="657.6" y2="864.5"/>
<line class="st1" x1="610.8" y1="864.9" x2="656.6" y2="864.9"/>
<line class="st1" x1="610.8" y1="867.1" x2="656.6" y2="867.1"/>
<line class="st1" x1="657.3" y1="864.8" x2="687.8" y2="864.8"/>
<line class="st1" x1="581.8" y1="864.8" x2="609.8" y2="864.8"/>
<line class="st1" x1="581.8" y1="867.1" x2="609.8" y2="867.1"/>
<line class="st1" x1="657.3" y1="867.1" x2="687.8" y2="867.1"/>
<line class="st1" x1="609.7" y1="867.6" x2="609.7" y2="1047.2"/>
<line class="st1" x1="611" y1="867.6" x2="611" y2="1047.2"/>
<line class="st1" x1="656.3" y1="867.6" x2="656.3" y2="1047.2"/>
<line class="st1" x1="657.6" y1="867.6" x2="657.6" y2="1047.2"/>
<rect x="617.8" y="876.8" class="st1" width="32.1" height="159.2"/>
<line class="st1" x1="1280.7" y1="812.1" x2="1280.7" y2="867.7"/>
<line class="st1" x1="1283.7" y1="812.1" x2="1283.7" y2="867.7"/>
<line class="st1" x1="1224.4" y1="867.4" x2="1280.8" y2="867.4"/>
<line class="st1" x1="1224.4" y1="869.7" x2="1280.8" y2="869.7"/>
<line class="st1" x1="1280.7" y1="870.2" x2="1280.7" y2="1049.8"/>
<line class="st1" x1="1283.7" y1="870.2" x2="1283.7" y2="1049.8"/>
<line class="st1" x1="1487.8" y1="812.2" x2="1487.8" y2="867.4"/>
<line class="st1" x1="1490.1" y1="811.7" x2="1490.1" y2="870.1"/>
<line class="st1" x1="1426.8" y1="867.1" x2="1487.9" y2="867.1"/>
<line class="st1" x1="1426.8" y1="869.3" x2="1487.9" y2="869.3"/>
<line class="st1" x1="1487.8" y1="869.8" x2="1487.8" y2="1049.5"/>
<line class="st1" x1="1490.1" y1="868.4" x2="1490.1" y2="1049"/>
<line class="st1" x1="1424.9" y1="812.2" x2="1424.9" y2="867.4"/>
<line class="st1" x1="1427.2" y1="812.2" x2="1427.2" y2="867.4"/>
<line class="st1" x1="1424.9" y1="869.8" x2="1424.9" y2="1049.5"/>
<line class="st1" x1="1427.2" y1="869.8" x2="1427.2" y2="1049.5"/>
<line class="st1" x1="1375.4" y1="867.1" x2="1424.7" y2="867.1"/>
<line class="st1" x1="1375.4" y1="869.3" x2="1424.7" y2="869.3"/>
<line class="st1" x1="1283.7" y1="867.4" x2="1332.5" y2="867.4"/>
<line class="st1" x1="1283.7" y1="869.7" x2="1332.5" y2="869.7"/>
<rect x="1230" y="877.5" class="st1" width="45" height="172"/>
<rect x="1289.4" y="877.5" class="st1" width="43.4" height="172"/>
<rect x="1435.6" y="877.5" class="st1" width="45" height="172"/>
<rect x="1376.2" y="877.5" class="st1" width="41.8" height="172"/>
<rect x="1554.5" y="837.2" class="st0" width="72.3" height="163.5"/>
<rect x="609.9" y="489" class="st0" width="49.8" height="65.8"/>
<rect x="671.7" y="489" class="st0" width="16.1" height="65.8"/>
<rect x="581.6" y="489" class="st0" width="16.1" height="65.8"/>
<rect x="460.6" y="489.6" class="st0" width="49.8" height="65.8"/>
<rect x="522.5" y="489.6" class="st0" width="16.1" height="65.8"/>
<rect x="435.3" y="489.6" class="st0" width="13.6" height="65.8"/>
<rect x="304.6" y="489.6" class="st0" width="59.6" height="65.8"/>
<rect x="376.3" y="489.6" class="st0" width="16.1" height="65.8"/>
<rect x="277.3" y="489.6" class="st0" width="15.3" height="65.8"/>
<rect x="1254.2" y="488.8" class="st0" width="49.8" height="65.8"/>
<rect x="1316.1" y="488.8" class="st0" width="16.1" height="65.8"/>
<rect x="1225.2" y="488.8" class="st0" width="16.9" height="65.8"/>
<rect x="1402.5" y="488.8" class="st0" width="60.5" height="65.8"/>
<rect x="1475.6" y="488.8" class="st0" width="16.1" height="65.8"/>
<rect x="1376.2" y="488.8" class="st0" width="14.1" height="65.8"/>
<rect x="1564.3" y="488.8" class="st0" width="49.8" height="65.8"/>
<rect x="1626.1" y="488.8" class="st0" width="11.9" height="65.8"/>
<rect x="1540" y="488.8" class="st0" width="12" height="65.8"/>
<rect x="1554.5" y="996.4" class="st6" width="72.3" height="4.2"/>
<rect x="1427.4" y="812.2" class="st5" width="59.9" height="54.1"/>
<rect x="1376" y="812.2" class="st5" width="48.5" height="54.1"/>
<rect x="1224.8" y="812.1" class="st5" width="55.4" height="54.8"/>
<rect x="1284" y="812.1" class="st5" width="48.5" height="54.8"/>
<rect x="611.4" y="812" class="st5" width="44.5" height="52.4"/>
<rect x="658" y="812" class="st5" width="29.4" height="52.4"/>
<rect x="581.8" y="812" class="st5" width="27.6" height="52.4"/>
<rect x="509.5" y="812.1" class="st5" width="28.9" height="52.7"/>
<rect x="462.6" y="812" class="st5" width="44.5" height="52.4"/>
<rect x="435.8" y="812" class="st5" width="24.9" height="52.4"/>
<rect x="360.9" y="812.1" class="st5" width="31.2" height="52.7"/>
<rect x="314.3" y="812.4" class="st5" width="44.3" height="52.4"/>
<rect x="277.6" y="812.4" class="st5" width="34.5" height="52.4"/>
<rect x="277.6" y="868.1" class="st5" width="34.5" height="178.7"/>
<rect x="360.9" y="868.1" class="st5" width="31.2" height="178.7"/>
<rect x="321.2" y="878.2" class="st5" width="31.2" height="158.3"/>
<rect x="435.8" y="867.2" class="st5" width="24.9" height="179.3"/>
<rect x="469.3" y="877.3" class="st5" width="31.2" height="158.3"/>
<rect x="618.3" y="877" class="st5" width="31.2" height="158.3"/>
<rect x="509.5" y="867.2" class="st5" width="28.9" height="179.3"/>
<rect x="581.8" y="867.5" class="st5" width="27.6" height="179.3"/>
<rect x="658" y="867.7" class="st5" width="29.4" height="179.3"/>
<rect x="721.8" y="770.7" class="st5" width="19.1" height="128.2"/>
<rect x="743.2" y="770.7" class="st5" width="19.6" height="128.2"/>
<rect x="743.2" y="902.1" class="st5" width="19.6" height="144.4"/>
<rect x="721.8" y="902.1" class="st5" width="19.1" height="144.4"/>
<rect x="774.1" y="902.1" class="st5" width="19.6" height="144.4"/>
<rect x="774.3" y="770.7" class="st5" width="19.6" height="128.2"/>
<rect x="796.5" y="770.8" class="st5" width="17.3" height="128.2"/>
<rect x="796.5" y="901.5" class="st5" width="17.3" height="145"/>
<rect x="847.1" y="770.6" class="st5" width="19.1" height="128.2"/>
<rect x="868.4" y="770.6" class="st5" width="19.6" height="128.2"/>
<rect x="868.4" y="902" class="st5" width="19.6" height="144.4"/>
<rect x="847" y="902" class="st5" width="19.1" height="144.4"/>
<rect x="899.6" y="902" class="st5" width="19.6" height="144.4"/>
<rect x="899.6" y="770.6" class="st5" width="19.6" height="128.2"/>
<rect x="921.7" y="770.7" class="st5" width="17.3" height="128.2"/>
<rect x="921.7" y="901.4" class="st5" width="17.3" height="145"/>
<rect x="974.1" y="769.4" class="st5" width="19.1" height="128.2"/>
<rect x="995.5" y="769.4" class="st5" width="19.6" height="128.2"/>
<rect x="995.5" y="900.8" class="st5" width="19.6" height="145.9"/>
<rect x="974.1" y="900.8" class="st5" width="19.1" height="145.9"/>
<rect x="1026.4" y="900.5" class="st5" width="19.6" height="146.2"/>
<rect x="1026.6" y="769.4" class="st5" width="19.6" height="128.2"/>
<rect x="1048.8" y="769.4" class="st5" width="17.3" height="128.2"/>
<rect x="1048.8" y="900.8" class="st5" width="17.3" height="145.9"/>
<rect x="1101" y="769.6" class="st5" width="19.1" height="128.7"/>
<rect x="1122.4" y="769.6" class="st5" width="19.6" height="128.8"/>
<rect x="1122.4" y="900.8" class="st5" width="19.6" height="145.9"/>
<rect x="1101" y="900.8" class="st5" width="19.1" height="145.9"/>
<rect x="1153.3" y="900.8" class="st5" width="19.6" height="145.9"/>
<rect x="1153.1" y="769.8" class="st5" width="20" height="128.5"/>
<rect x="1175.5" y="769.8" class="st5" width="17.8" height="128.5"/>
<rect x="1175.4" y="901.1" class="st5" width="17.8" height="145.6"/>
<rect x="721.7" y="594.8" class="st5" width="19.1" height="146.7"/>
<rect x="742.8" y="594.9" class="st5" width="20.1" height="146.7"/>
<rect x="774.1" y="595" class="st5" width="19.6" height="146.7"/>
<rect x="795.7" y="594.9" class="st5" width="18.4" height="146.7"/>
<rect x="742.8" y="556.8" class="st5" width="20.1" height="35.6"/>
<polyline class="st5" points="762.9,556.8 742.8,527.1 742.8,556.8 "/>
<rect x="721.7" y="524.4" class="st5" width="19.1" height="68"/>
<line class="st5" x1="740.9" y1="524.5" x2="721.7" y2="496.1"/>
<polyline class="st5" points="740.9,524.5 721.7,496.2 721.7,524.5 "/>
<rect x="16.3" y="1047.9" class="st7" width="260.3" height="12.9"/>
<rect x="277.6" y="1047.9" class="st7" width="114.6" height="12.9"/>
<rect x="393" y="1047.9" class="st7" width="41.8" height="12.9"/>
<rect x="435.6" y="1047.9" class="st7" width="102.8" height="12.9"/>
<rect x="539.2" y="1047.9" class="st7" width="41.9" height="12.9"/>
<rect x="581.8" y="1047.9" class="st7" width="105.6" height="12.9"/>
<rect x="721.7" y="1047.9" class="st7" width="92.4" height="12.9"/>
<rect x="688.2" y="1047.9" class="st7" width="32.8" height="12.9"/>
<rect x="814.9" y="1047.9" class="st7" width="31.4" height="12.9"/>
<rect x="846.8" y="1047.9" class="st7" width="92.5" height="12.9"/>
<rect x="940.2" y="1047.9" class="st7" width="32.9" height="12.9"/>
<rect x="1067.1" y="1047.9" class="st7" width="32.9" height="12.9"/>
<rect x="1194" y="1047.9" class="st7" width="30" height="12.9"/>
<rect x="1100.8" y="1047.9" class="st7" width="92.5" height="12.9"/>
<rect x="973.9" y="1047.8" class="st7" width="92.4" height="13"/>
<rect x="1333.3" y="1033" class="st7" width="41.8" height="27.8"/>
<rect x="1492.4" y="1033" class="st7" width="46.7" height="27.8"/>
<rect x="1638.9" y="1047.9" class="st7" width="262.5" height="12.9"/>
<rect x="1539.9" y="1047.9" class="st7" width="97.9" height="12.9"/>
<polyline class="st8" points="1230,943 1234.1,947.6 1234.1,967.5 1230,971.2 "/>
<polyline class="st8" points="1230.2,939.8 1237,945.4 1237,969.8 1230.2,974.4 "/>
<polyline class="st8" points="1289.4,943 1293.5,947.6 1293.5,967.5 1289.4,971.2 "/>
<polyline class="st8" points="1289.6,939.8 1296.5,945.4 1296.5,969.8 1289.6,974.4 "/>
<polyline class="st8" points="1435.6,943 1439.7,947.6 1439.7,967.5 1435.6,971.2 "/>
<polyline class="st8" points="1435.8,939.8 1442.7,945.4 1442.7,969.8 1435.8,974.4 "/>
<polyline class="st8" points="1375.6,943 1378.7,947.6 1378.7,967.5 1375.6,971.2 "/>
<polyline class="st8" points="1375.7,939.8 1380.9,945.4 1380.9,969.8 1375.7,974.4 "/>
<rect x="1639" y="342.2" class="st9" width="262.7" height="704.7"/>
<rect x="774.1" y="557.1" class="st5" width="19.6" height="35.3"/>
<polyline class="st5" points="793.6,557.1 793.6,526.8 774.1,557.1 "/>
<rect x="795.6" y="523.6" class="st5" width="18.5" height="68.7"/>
<polyline class="st5" points="795.6,523.7 814.1,495.2 814.1,523.7 "/>
<rect x="16.3" y="342.2" class="st9" width="260.1" height="704.6"/>
<line class="st1" x1="277.3" y1="340.5" x2="277.3" y2="305.3"/>
<line class="st1" x1="1638.4" y1="341.2" x2="1638.4" y2="306.1"/>
<rect x="1492.4" y="482" class="st9" width="46.6" height="549.7"/>
<rect x="1333.3" y="482.1" class="st9" width="41.8" height="549.8"/>
<rect x="539.2" y="482.1" class="st9" width="41.8" height="564.7"/>
<rect x="393" y="482" class="st9" width="41.8" height="564.8"/>
<rect x="688.2" y="482.1" class="st9" width="32.7" height="564.7"/>
<rect x="814.9" y="482" class="st9" width="31.3" height="564.7"/>
<rect x="940.2" y="482.3" class="st9" width="32.8" height="564.7"/>
<rect x="1067.1" y="482.1" class="st9" width="32.9" height="564.7"/>
<rect x="1194" y="482.1" class="st9" width="30" height="564.7"/>
<rect x="944.4" y="201.4" transform="matrix(-1.836970e-16 1 -1 -1.836970e-16 1425.3541 -486.7784)" class="st9" width="23.4" height="535.8"/>
<rect x="921.2" y="153.8" transform="matrix(-1.836970e-16 1 -1 -1.836970e-16 1377.7262 -534.4112)" class="st9" width="69.7" height="535.8"/>
<rect x="756.7" y="712.3" transform="matrix(-1.836970e-16 1 -1 -1.836970e-16 1526.3231 -9.3547)" class="st9" width="22.3" height="92.4"/>
<rect x="882" y="712" transform="matrix(-1.836970e-16 1 -1 -1.836970e-16 1651.2559 -134.9754)" class="st9" width="22.3" height="92.4"/>
<rect x="1008.9" y="710.9" transform="matrix(-1.836970e-16 1 -1 -1.836970e-16 1777.2089 -262.9666)" class="st9" width="22.3" height="92.4"/>
<rect x="1135.8" y="711.3" transform="matrix(-1.836970e-16 1 -1 -1.836970e-16 1904.4885 -389.4819)" class="st9" width="22.3" height="92.4"/>
</svg>
