<?xml version="1.0" encoding="utf-8"?>
<!-- Generator: Adobe Illustrator 24.3.0, SVG Export Plug-In . SVG Version: 6.00 Build 0)  -->
<svg version="1.1" xmlns="http://www.w3.org/2000/svg" xmlns:xlink="http://www.w3.org/1999/xlink" x="0px" y="0px"
	 viewBox="0 0 48 48" style="enable-background:new 0 0 48 48;" xml:space="preserve">
<style type="text/css">
	.st0{fill:none;stroke:#77619E;stroke-linecap:round;stroke-linejoin:round;stroke-miterlimit:10;}
	.st1{fill:#6840B5;}
	.st2{fill:#77619E;}
	.st3{fill:#5954B6;}
</style>
<g id="Слой_2">
	<path class="st0" d="M14.3,30.1h13.6c1,0,1.8-0.8,1.8-1.8v-8.5c0-1-0.8-1.8-1.8-1.8h-8.3c-1,0-1.8,0.8-1.8,1.8v1.5
		c0,1-0.8,1.7-1.7,1.8l-1.2,0c-0.9,0-1.6,0.7-1.7,1.6l-0.4,3.8L12,24.4c-0.2-0.8-0.9-1.4-1.7-1.4H7.1c-1,0-1.8-0.8-1.8-1.8V6.8
		c0-1,0.8-1.8,1.8-1.8h37.5c1,0,1.8,0.8,1.8,1.8v3.5h0.9v7.3h-0.5v24.9c0,1-0.8,1.8-1.8,1.8H7.2c-0.6,0-1.2-0.3-1.5-0.9l-0.1-0.2
		c-0.3-0.5-0.9-0.9-1.5-0.9h0c-1,0-1.8-0.8-1.8-1.8v-6.2c0-0.5,0.2-1,0.7-1.4l2.9-2.3c0.3-0.3,0.7-0.4,1.1-0.4h3.9"/>
</g>
<g id="Слой_3">
	<g>
		<path class="st1" d="M38.4,31.2h-4.3c-0.3,0-0.5-0.2-0.5-0.5v-4.3c0-0.3,0.2-0.5,0.5-0.5h4.3c0.3,0,0.5,0.2,0.5,0.5v4.3
			C38.9,31,38.6,31.2,38.4,31.2z"/>
		<path class="st1" d="M46.6,16.9c0,0-0.5,0-0.5,0V11h0.5"/>
		<path class="st1" d="M27.7,39.6h-1.8c-0.5,0-0.8-0.4-0.8-0.8v-2.1c0-0.5,0.4-0.8,0.8-0.8h1.8c0.5,0,0.8,0.4,0.8,0.8v2.1
			C28.5,39.2,28.2,39.6,27.7,39.6z"/>
		<polygon class="st1" points="34.5,28.6 34.5,29.5 35.1,30 38.4,30 38.4,28.7 34.6,28.6 		"/>
		<path class="st1" d="M18,11.6V8c0-1,0.8-1.9,1.9-1.9h21.5c0.5,0,1,0.2,1.3,0.5l2.2,2.2c0.3,0.3,0.5,0.8,0.5,1.3v13.5
			c0,1-0.8,1.9-1.9,1.9h0c-0.4,0-0.7-0.1-0.9-0.4l-2.7-2.7c-0.2-0.2-0.4-0.6-0.4-0.9v0c0-0.4,0.1-0.7,0.4-0.9l0.4-0.4
			c0.3-0.3,0.5-0.8,0.5-1.3v-3.4c0-0.5-0.2-1-0.5-1.3l-0.9-0.9c-0.3-0.3-0.8-0.5-1.3-0.5h-3.9L33.7,13L33,12.3
			c-0.3-0.3-0.8-0.5-1.3-0.5H18V11.6z"/>
		<path class="st1" d="M13.6,22.4L13.6,22.4c-1.2,0-2.2-1-2.2-2.2v0c0-1.2,1-2.2,2.2-2.2h0c1.2,0,2.2,1,2.2,2.2v0
			C15.8,21.4,14.8,22.4,13.6,22.4z"/>
		<path class="st1" d="M13.8,22.4L13.8,22.4c-1.2,0-2.2-1-2.2-2.2v0c0-1.2,1-2.2,2.2-2.2h0c1.2,0,2.2,1,2.2,2.2v0
			C16,21.4,15,22.4,13.8,22.4z"/>
		<path class="st1" d="M6.3,31.1l-1,0.8c-0.7,0.5-0.3,1.6,0.6,1.6l24.2-0.1c0.5,0,0.9-0.4,0.9-0.9V18.8l-0.6,0.8
			c-0.1,0.1-0.2,0.3-0.2,0.5l-0.1,9.8c0,0.5-0.4,0.9-0.9,0.9L7,30.8C6.8,30.8,6.5,30.9,6.3,31.1z"/>
		<path class="st1" d="M18,17.8l0.4-0.3c0.4-0.3,0.8-0.4,1.3-0.4h8.5c0.6,0,1.1,0.2,1.5,0.6l0.4,0.4v-3.5c0-1.2-1-2.2-2.2-2.2h-6.4
			c-0.9,0-1.7,0.6-2,1.4L18,17.8z"/>
		<path class="st1" d="M32.6,17.2"/>
		<path class="st1" d="M36.5,21.6L36.5,21.6c-2,0-3.6-1.6-3.6-3.6v-1.4c0-2,1.6-3.6,3.6-3.6h0c2,0,3.6,1.6,3.6,3.6v1.4
			C40.1,19.9,38.5,21.6,36.5,21.6z"/>
		<path class="st1" d="M36.9,21.6L36.9,21.6c-2,0-3.6-1.6-3.6-3.6v-1.4c0-2,1.6-3.6,3.6-3.6h0c2,0,3.6,1.6,3.6,3.6v1.4
			C40.5,19.9,38.9,21.6,36.9,21.6z"/>
	</g>
	<g>
		<path class="st2" d="M38.4,31.2h-4.3c-0.3,0-0.5-0.2-0.5-0.5v-4.3c0-0.3,0.2-0.5,0.5-0.5h4.3c0.3,0,0.5,0.2,0.5,0.5v4.3
			C38.9,31,38.6,31.2,38.4,31.2z"/>
		<path class="st2" d="M46.6,16.9c0,0-0.5,0-0.5,0V11h0.5"/>
		<path class="st2" d="M27.7,39.6h-1.8c-0.5,0-0.8-0.4-0.8-0.8v-2.1c0-0.5,0.4-0.8,0.8-0.8h1.8c0.5,0,0.8,0.4,0.8,0.8v2.1
			C28.5,39.2,28.2,39.6,27.7,39.6z"/>
		<polygon class="st3" points="34.5,28.6 34.5,29.5 35.1,30 38.4,30 38.4,28.7 34.6,28.6 		"/>
		<path class="st3" d="M18,11.6V8c0-1,0.8-1.9,1.9-1.9h21.5c0.5,0,1,0.2,1.3,0.5l2.2,2.2c0.3,0.3,0.5,0.8,0.5,1.3v13.5
			c0,1-0.8,1.9-1.9,1.9h0c-0.4,0-0.7-0.1-0.9-0.4l-2.7-2.7c-0.2-0.2-0.4-0.6-0.4-0.9v0c0-0.4,0.1-0.7,0.4-0.9l0.4-0.4
			c0.3-0.3,0.5-0.8,0.5-1.3v-3.4c0-0.5-0.2-1-0.5-1.3l-0.9-0.9c-0.3-0.3-0.8-0.5-1.3-0.5h-3.9L33.7,13L33,12.3
			c-0.3-0.3-0.8-0.5-1.3-0.5H18V11.6z"/>
		<path class="st3" d="M13.6,22.4L13.6,22.4c-1.2,0-2.2-1-2.2-2.2v0c0-1.2,1-2.2,2.2-2.2h0c1.2,0,2.2,1,2.2,2.2v0
			C15.8,21.4,14.8,22.4,13.6,22.4z"/>
		<path class="st3" d="M13.8,22.4L13.8,22.4c-1.2,0-2.2-1-2.2-2.2v0c0-1.2,1-2.2,2.2-2.2h0c1.2,0,2.2,1,2.2,2.2v0
			C16,21.4,15,22.4,13.8,22.4z"/>
		<path class="st3" d="M6.3,31.1l-1,0.8c-0.7,0.5-0.3,1.6,0.6,1.6l24.2-0.1c0.5,0,0.9-0.4,0.9-0.9V18.8l-0.6,0.8
			c-0.1,0.1-0.2,0.3-0.2,0.5l-0.1,9.8c0,0.5-0.4,0.9-0.9,0.9L7,30.8C6.8,30.8,6.5,30.9,6.3,31.1z"/>
		<path class="st2" d="M18,17.8l0.4-0.3c0.4-0.3,0.8-0.4,1.3-0.4h8.5c0.6,0,1.1,0.2,1.5,0.6l0.4,0.4v-3.5c0-1.2-1-2.2-2.2-2.2h-6.4
			c-0.9,0-1.7,0.6-2,1.4L18,17.8z"/>
		<path class="st1" d="M32.6,17.2"/>
		<path class="st3" d="M36.5,21.6L36.5,21.6c-2,0-3.6-1.6-3.6-3.6v-1.4c0-2,1.6-3.6,3.6-3.6h0c2,0,3.6,1.6,3.6,3.6v1.4
			C40.1,19.9,38.5,21.6,36.5,21.6z"/>
		<path class="st2" d="M36.9,21.6L36.9,21.6c-2,0-3.6-1.6-3.6-3.6v-1.4c0-2,1.6-3.6,3.6-3.6h0c2,0,3.6,1.6,3.6,3.6v1.4
			C40.5,19.9,38.9,21.6,36.9,21.6z"/>
	</g>
</g>
</svg>
