<?xml version="1.0" encoding="utf-8"?>
<!-- Generator: Adobe Illustrator 24.3.0, SVG Export Plug-In . SVG Version: 6.00 Build 0)  -->
<svg version="1.1" xmlns="http://www.w3.org/2000/svg" xmlns:xlink="http://www.w3.org/1999/xlink" x="0px" y="0px"
	 viewBox="0 0 48 48" style="enable-background:new 0 0 48 48;" xml:space="preserve">
<style type="text/css">
	.st0{fill:none;stroke:#6FA794;stroke-linecap:round;stroke-linejoin:round;stroke-miterlimit:10;}
	.st1{fill:#6FA794;}
	.st2{fill:#7AFCAE;}
	.st3{fill:#052D13;}
	.st4{fill:#17E556;}
	.st5{fill:#13E554;}
	.st6{fill:#0EAA3E;}
</style>
<g id="Слой_2">
	<path class="st0" d="M39.9,40.6v1.3c0,0-19.5,6.8-39.3,3.7c0-0.3,1.6-1.5,1.6-1.5s39.4,0.5,45.2-8.7c0-1.2-0.6-11.9-7-25
		c-2.3-0.7-14.5-2.6-22.6,4.3S4.4,28,4.3,30.3S4.4,33,4.4,33s-1.7,6.3-2,6.6s24.7,3.4,37.1-12"/>
	<path class="st0" d="M21.6,27l-1.7-1.2c0,0-1-7.3,6.6-8.4s5.9-1,5.9-1s-0.2,2.8-1,4.6c-0.4,0.8-1.2,1.3-2.1,1.2
		c-2-0.1-5.4,0-5.5,1.1c-0.1,1.4-0.1,1.4-0.1,1.4s3,2.7,9.3,0.3c0.1-0.6,0-1.1,0-1.1s0.3-1.2-1.4-1.3"/>
	<g>
		<path class="st1" d="M44.4,2.8L44.4,2.8L44.4,2.8 M44,3.2l0.4,0.6l-4.2,5l-0.8-0.1L44,3.2 M44,2c-0.2,0-0.3,0.1-0.5,0.2l-5.4,6.5
			c-0.3,0.4-0.1,0.9,0.4,1l1.8,0.2c0,0,0,0,0.1,0c0.2,0,0.3-0.1,0.5-0.2l4.5-5.5c0.2-0.2,0.2-0.5,0-0.7l-0.9-1.3C44.4,2,44.2,2,44,2
			L44,2z"/>
	</g>
</g>
<g id="Слой_3">
	<path class="st2" d="M3.7,37.8l-0.4,1.3c0,0,24.3,2.4,35.5-12.1c-1.9-0.3-6.1-0.5-8.5-0.3s-4.8,0.5-7.4-1.5c0-0.4,0-1.2,0-1.2
		s-1.8,0.5-2.4,0.7c0,0.5,0,0.6,1.7,1.8c0.2,0.7,0,1-0.4,1.2c0,0.4,0.3,1-3.2,3.1S8.4,36.6,8.4,36.6S5.2,38.3,3.7,37.8z"/>
	<path class="st3" d="M1.9,45.1c0,0,16.4,2.5,37-3.6c0-0.4,0-0.4,0-0.4S29.4,45,2.4,44.7C1.9,45.1,1.9,45.1,1.9,45.1z"/>
	<path class="st4" d="M14.1,19l0.9-0.8c0.2-0.2,0.5-0.3,0.8-0.2l3.9,0.8c0.6,0.1,0.9,0.8,0.6,1.3c-0.4,0.7-0.9,1.7-1.1,2.9
		c-0.1,0.7-0.9,1-1.4,0.5l-3.5-3.3C13.8,20,13.8,19.4,14.1,19z"/>
	<path class="st5" d="M16.5,16.8l1.1-1c0.1-0.1,0.4-0.2,0.5-0.1l3.9,1.4c0.4,0.1,0.5,0.7,0.1,0.9l-0.9,0.6c-0.1,0.1-0.3,0.1-0.4,0.1
		l-4.1-1C16.4,17.6,16.2,17.1,16.5,16.8z"/>
	<path class="st6" d="M20,14.1L20,14.1c0.1-0.1,0.3-0.1,0.4-0.1l2,0.6c0.3,0.1,0.4,0.5,0.2,0.7l-0.7,1c-0.1,0.1-0.3,0.2-0.5,0.2
		l-1-0.2C19.5,16,19.2,14.7,20,14.1z"/>
</g>
</svg>
